<?xml version="1.0" encoding="utf-8"?>
<!-- Generator: Adobe Illustrator 27.0.0, SVG Export Plug-In . SVG Version: 6.00 Build 0)  -->
<svg version="1.1" id="Layer_1" xmlns="http://www.w3.org/2000/svg" xmlns:xlink="http://www.w3.org/1999/xlink" x="0px" y="0px"
	 viewBox="0 0 2500 2500" style="enable-background:new 0 0 2500 2500;" xml:space="preserve">
<style type="text/css">
	.st0{fill:#D94436;}
	.st1{fill:#40342D;}
	.st2{fill:#FFFFFF;}
	.st3{fill:#DD5F86;}
	.st4{fill:#BF3459;}
	.st5{fill:#D6BDA5;}
	.st6{fill:#68253A;}
</style>
<g id="BG">
	<rect class="st0" width="2500" height="2500"/>
</g>
<g id="Logo_00000111180536863283908590000002177075859158545574_">
	<g>
		<path class="st1" d="M466.89,1931.88l140.18-11.57c5.76-0.48,11.35-0.72,16.61-0.72c12.37,0,23.36,1.28,33.58,3.92
			c10.23,2.64,19.62,6.68,28.03,12.03c0.46-0.5,0.94-1.01,1.4-1.51c7.45-7.81,16.57-14.29,27.13-19.27
			c8.93-4.21,18.81-7.33,30.18-9.53c8.99-1.74,19.31-3.09,30.66-4.03c8.04-0.67,15.67-0.99,22.65-0.99
			c15.13,0,27.85,1.51,38.93,4.65c11.58,3.27,22.06,8.48,31.32,15.52c8.46-9.08,18.81-16.38,30.44-21.48
			c14.96-6.53,34.33-10.7,59.2-12.76c7.77-0.64,15.15-0.97,21.98-0.97c12.78,0,23.97,1.09,34.18,3.34c0.3,0.07,0.59,0.14,0.89,0.19
			l-0.16-1.99l335.2-27.65c5.79-0.48,11.39-0.72,16.68-0.72c12.31,0,23.26,1.25,33.5,3.84c8.45,2.15,16.33,5.21,23.59,9.16
			l0.45-18.41l475-39.19c8.29-0.68,16.11-1.04,23.26-1.04c14.62,0,26.98,1.39,37.77,4.25c21.14,5.6,38.96,17.73,51.52,35.05
			l0.37,0.5c5.01,7.13,9.29,14.81,12.77,22.93c3.42,8.03,6.36,17.81,9.01,29.93c2.29,10.56,4.35,23.55,6.3,39.71
			c1.8,15.06,3.71,34.61,5.64,58.13c1.94,23.53,3.28,43.18,3.98,58.43c0.75,16.41,0.84,29.64,0.31,40.45
			c-0.6,12.26-1.87,22.33-3.87,30.78c-2.15,9.1-5.26,17.67-9.23,25.48c-4.73,9.63-10.89,18.17-18.29,25.35
			c-7.56,7.33-16.64,13.38-27,17.99c-8.6,3.83-18.07,6.73-28.92,8.84c-8.89,1.73-19.16,3.09-30.55,4.03l-517.93,42.78l0.04-1.69
			c-7.86,1.79-16.39,3.04-25.71,3.82l-340.84,28.13l-0.19-2.3c-14.77,6.32-32.41,10.26-53.81,12.03c-8.82,0.72-17.13,1.1-24.68,1.1
			c-14.57,0-26.87-1.32-37.61-4.02c-12.26-3.09-23.56-8.52-33.26-15.92c-0.71,0.76-1.42,1.51-2.14,2.23
			c-7.26,7.3-16.13,13.46-26.38,18.3c-8.8,4.16-18.86,7.35-29.91,9.51c-8.87,1.73-19.16,3.09-30.55,4.03
			c-8.41,0.7-16.33,1.05-23.55,1.05c-10.3,0-19.46-0.68-27.7-2.08l-257.39,21.23L466.89,1931.88z"/>
		<path class="st1" d="M1625.31,1630.01c4.01,9.54,6.57,24.79-3.82,43.12c-5.78,10.19-14.05,18.49-19.77,23.86
			c-13.82,12.97-34.2,27.81-60.6,44.1c-51.61,31.86-122.7,67.29-200.18,99.74c-77.5,32.46-152.61,58.27-211.52,72.7
			c-30.13,7.37-55,11.5-73.93,12.26c-2.36,0.1-4.54,0.14-6.66,0.14c-37.13,0-51.84-16.49-57.64-30.32l-47.67-113.81
			c-4.13-9.88-6.64-25.7,4.93-44.92c5.75-9.55,13.01-16.62,16.5-20c9.88-9.61,23.49-20.29,40.55-31.85
			c1.53-17.8,3.12-36.62,4.73-55.64c5.75-67.59,11.65-137.18,15.11-171.84c-27.02-36.26-75.67-122.3-96.58-159.91
			c-7.84-14.09-28.14-50.84-47.35-87.64c-38.97-74.68-40.35-86.26-41.1-92.49c-1.68-14.16,2.32-28.96,30.54-79.24
			c7.55-13.45,16.5-28.79,26.67-45.68c-7.92-52.79-60.27-237.79-86.11-329.08c-20.59-72.74-23.28-82.69-23.98-88.7
			c-0.38-2.9-3.6-20.32-6.7-37.17c-11.79-63.98-33.74-183.04-37.91-238.13c-3.53-46.46,18.87-86.56,58.47-104.66
			c13.34-6.09,27.98-9.31,42.33-9.31c23.38,0,44.4,8.19,59.17,23.08c15.73,15.83,41.11,61.92,119.96,289.93
			c2.32,6.7,4.7,13.59,5.16,14.83c0.8,2.11,2.59,6.79,8.9,32.36c12.11-7.74,25.5-12.81,39.85-15c5.55-0.84,11.19-1.27,16.75-1.27
			c33.93,0,60.82,15.7,77.39,28.85c8.46,6.72,16.34,14.47,23.17,22.73c11.8-4.42,25.17-6.96,39.23-7.41c1.49-0.04,3-0.05,4.5-0.05
			c26.11,0,52.89,7.29,75.39,20.56c3.61,2.13,7.11,4.42,10.52,6.84c0.53-2.59,1.05-5.14,1.55-7.63
			c11.08-54.3,14.25-68.64,18.87-77.84c3.54-10.87,14.98-67.33,21.87-101.37c14.62-72.21,23.97-117.26,30.46-134.68
			c10.12-27.09,38.52-44.59,72.36-44.59c3.11,0,6.27,0.15,9.42,0.45c19.95,1.85,37.99,9.39,52.14,21.82
			c14.5,12.7,23.93,29.6,27.27,48.83c9.1,52.33,4.12,255.7-0.6,274.63l-0.18,0.68c-25.32,101.73-45.92,229.02-34.84,284.04
			c2.28,11.31,5.78,25.81,9.83,42.63c27.28,113,77.7,321.97-13.98,485.29c1.66,24.31,4.69,55.45,9.01,92.87
			c13.53,0.8,24.65,3.92,33.28,9.32L1625.31,1630.01z M1580.52,1647.52l-36.85-87.99c-7.9,8.57-19.39,18.08-34.68,28.85
			c-49.03,34.45-133.14,77.99-225,116.47c-96.39,40.35-189.12,70.22-248.07,79.88c-13.44,2.19-24.79,3.31-34.23,3.31
			c-1.17,0-2.32-0.03-3.43-0.05l36.85,87.98c2.9,1.32,20.92,6.96,92.46-11.56c55.04-14.24,124.23-38.37,194.8-67.93
			c70.59-29.57,136.31-61.94,185.08-91.17C1570.83,1667.31,1579.44,1650.52,1580.52,1647.52z M1510.26,569.19
			c2.19-13.7,8.18-207.81-0.05-255.01c-3.61-20.71-21.22-29.61-36.48-31.03c-15.1-1.39-28.98,4.22-32.3,13.08
			c-5.64,15.13-17.72,74.77-28.37,127.39c-0.79,3.94-1.58,7.75-2.32,11.45c24.16-3.52,59.73,4.32,79.69,30.65
			c-13.6-7.89-55.69-8.57-85.17-3.8c-10.48,50.9-14.81,69.06-18.23,75.15c-2.44,5.61-8.97,37.61-14.72,65.87
			c-14.89,73-26.71,128.05-37.99,149.87c8.76,21.86,12.13,46.33,4.27,67.07c-2.11,5.6-5.45,11.81-9.8,18.4
			c3.9,10.66,11.45,33.93,15.17,62.29c24.61,7.66,71.9,49.83,86.75,107.22c-6.88-16.95-53.08-59.76-84.65-71.15
			c-0.26,13.15-1.72,26.65-4.97,40c-3.61,14.7-10.68,26.91-20.52,36.07c23,19.06,52.98,53.31,70.38,83.64
			c43.93,76.61,31.52,126.16,31.52,126.16c-0.1-22.61-19.81-65.79-51.46-112.72c-29.11-43.18-57-73.21-72.26-83.51
			c-5.33,2.08-11.04,3.6-17.1,4.51c120.03,176.29,6.27,308.94,6.27,308.94c47.19-79.11,0.01-264.76-34.8-309.06
			c-11.2-1.76-22.13-5.46-30.44-11.07c-4.25,6.05-8.84,10.66-12.97,14.06c-13.49,11.16-29.58,16.13-42.58,16.13
			c-0.35,0-0.71-0.03-1.06-0.04c-12.54,131.91-103.31,125.81-103.31,125.81c35.16-18.79,55.03-53.09,65.51-78.56
			c6.66-16.19,10.71-31.53,12.92-44.12c-43.77,19.53-83.18,7.07-83.18,7.07c60.18-11.81,111.77-73.57,124.62-110.69
			c-48.28,14.54-85.22-5.26-85.22-5.26c33.18,0.87,104.74-24.61,146.41-54.9c40.64-29.54,65.97-61.01,72.31-77.73
			c8.49-22.36-3.28-55.49-19.28-76.65c-11.07-14.62-20.84-19.42-24.69-19.11c-2.59,0.23-15.22,3.12-68.67,31.03
			c-2.56,1.34-5.15,2.7-7.75,4.06c1.42,19.34,30.12,47.46,104.81,34.74c-84.39,53.27-127.43,4.17-130.89-20.75
			c-23.15,12.55-46.02,25.32-64.35,35.55c-20.8,11.6-31.48,17.55-36.23,19.85c-8.71,8.79-50.56,69.68-95.8,141.38
			c-64.13,101.67-83.51,142.27-85.03,150.84c2.79,11.76,34.29,75.17,83.45,163.47c30.27,54.37,54.33,95.04,71.41,122.09
			c54.89,13.63,221.32,10.63,306.87-14.5c-59.32,59.48-207.86,69.38-274.9,62.24l-0.25,2c-2.83,23.36-9.85,105.96-16.64,185.85
			c-2.15,25.39-4.28,50.45-6.24,73.16c-1.85,21.41-3.32,38.24-4.52,51.57c48.72-9.87,116.16-31.26,188.48-59.73
			c9.83-40.76,8.39-225.15,6.36-246.13c0,0,38.01,120.25,19.64,235.67c4.27-1.76,8.54-3.52,12.82-5.31
			c86.71-36.32,166.07-77.01,214.49-109.85c-2.15-16.3-4.2-32.21-6.08-47.44c-7.44-59.99-12.14-107.15-13.98-140.2l-0.2-3.72
			l1.92-3.18c89.34-147.76,40.46-350.27,14.2-459.06c-4.18-17.31-7.78-32.26-10.23-44.48c-12.56-62.44,7.07-176.35,22.17-247.7
			c-26.37,3.76-71.53-2.15-95.69-33.15c23.26,8.09,74.51,3.39,103.61-2.55c2.21-9.48,4.02-16.94,5.23-21.74L1510.26,569.19z
			 M1328.8,690.64c0.53-2.18,1.06-4.39,1.58-6.62c-20.41-47.45-62.51-63.38-95.62-62.34c-21.33,0.68-35.92,8.45-39.95,16
			c1.01,18.51,0.26,59.99-1.05,86.91c39.14-20.43,64.81-31.93,76.3-32.92c19.88-1.73,37.3,17.14,45.94,28.55
			c1.17,1.55,2.34,3.18,3.49,4.84C1321.94,717.19,1325.04,706.17,1328.8,690.64z M1317.71,970.93c9.95-40.66,0.55-84.94-6.77-109.78
			c-20.14,22.57-48.59,46.55-80.02,65.18c8.68,30.85,7.59,54.06,2.37,71.24c4.44,4.33,18.1,10.57,35.81,10.23
			C1283.95,1007.48,1310.03,1002.3,1317.71,970.93z M1195.14,1014.48c16.94-14.64,22.06-39.87,15.02-72.11
			c-5.98,19.15-14.99,46.1-31.85,71.37c-2.79,4.2-5.72,8.19-8.76,11.98C1176.2,1025.16,1186.1,1022.32,1195.14,1014.48z
			 M1170.94,642.4c-0.08-2.19-0.18-4.14-0.31-5.81c-0.57-7.43-11.47-26.16-29.71-40.64c-12.71-10.1-32.92-21.37-56.98-17.69
			c-46.96,7.17-62.04,70.66-60.27,85.48c1.87,15.7,20.13,94.45,32.05,136.15c0.93-0.63,1.66-0.94,2.38-1.24
			c2.78-1.19,18.64-10.04,35.44-19.42c28.3-15.81,53.42-29.67,75.33-41.47c1.06-13.45,2.1-43.17,2.32-67.96
			c-23.43-10.55-91.4-20.3-125.44-10.98C1078.05,635.55,1145.45,634.87,1170.94,642.4z M1018.14,848.98
			c6.35-9.28,11.57-16.75,15.94-22.85c-26.67-10.92-103.78-48.2-112.7-117.51c9.36,25.4,72.1,58.35,101.11,60.07
			c-10.49-41.34-21.12-88.99-22.69-102.11c-1.09-9.13,0.97-24.38,6.51-40.62c-3.61-15.85-8.22-35.81-12.46-53.47
			c-23.15,18.72-73.94,29.46-127.26,8.14c32.09,3.57,95.91-22.24,119.89-37.99c-1.57-6.01-2.79-10.37-3.49-12.2
			c-0.63-1.65-2.19-6.16-5.66-16.2c-14.91-43.12-27.85-79.49-39.1-110.18c-20.94,9.89-62.58,18.04-98.73,8.07
			c19.32-1.72,66.69-19,88.29-36.25c-37.58-100.27-52.94-127.17-59.13-133.42c-10.12-10.19-30.05-11.83-47.4-3.91
			c-10.12,4.63-33.4,19.49-30.52,57.3c3.99,52.55,25.63,169.97,37.26,233.05c4.46,24.19,6.66,36.17,7.14,40.04
			c0.89,4.95,10.93,40.42,22.54,81.46c35.89,126.87,71.13,253.19,83.89,316.29c4.25-6.84,8.3-13.29,12.02-19.16
			C975.83,912.34,999.35,876.41,1018.14,848.98z"/>
		<path class="st2" d="M643.86,2272.63c-1.01-2.36-1.96-4.91-2.86-7.67c-0.91-2.77-2-7-3.28-12.71s-3.01-13.61-5.21-23.71
			c-2.19-10.1-4.95-23.93-8.3-41.51c-1.38-6.91-2.66-12.5-3.82-16.72c-1.16-4.22-2.37-7.44-3.64-9.63c-1.27-2.19-2.73-3.56-4.4-4.1
			c-1.66-0.53-3.45-0.74-5.33-0.57l-9.68,0.8l9.81,118.87l-63.26,5.22l-25.17-305.03l92.27-7.62c13.7-1.13,25.11-0.52,34.23,1.84
			c9.12,2.36,16.57,6.61,22.35,12.76c5.78,6.16,10.11,14.32,12.97,24.49c2.86,10.18,4.91,22.66,6.13,37.42
			c1.31,15.85,1.79,28.32,1.46,37.41s-1.43,16.28-3.3,21.57c-1.87,5.3-4.31,9.35-7.32,12.17c-3.01,2.82-6.57,5.61-10.67,8.38
			l0.2,2.41c1.72,1.21,3.52,2.55,5.4,4.02s3.64,4.03,5.3,7.67c2.55,4.66,5.37,11.8,8.46,21.41c3.09,9.62,6.45,23.21,10.06,40.76
			c2.63,12.22,4.66,22.06,6.09,29.52s2.66,13.44,3.71,17.95c1.05,4.51,1.88,7.96,2.48,10.34s1.39,4.62,2.38,6.7l0.16,2.02
			L643.86,2272.63z M610.42,2098.5c5.9-0.49,9.87-3.31,11.87-8.49c2-5.16,2.43-14.87,1.25-29.11c-0.99-12.09-3.07-20.03-6.23-23.83
			c-3.15-3.8-7.82-5.44-14-4.93l-16.12,1.34l5.49,66.49L610.42,2098.5z M869.89,2234.1c-2.29,5.06-5.11,9.28-8.49,12.67
			c-3.37,3.39-7.66,6.31-12.86,8.78c-5.21,2.45-11.41,4.39-18.59,5.79c-7.18,1.4-15.62,2.51-25.29,3.3
			c-19.61,1.62-34.6,1.04-44.97-1.77c-10.37-2.79-18.63-8.67-24.79-17.63c-3.07-4.35-5.76-9.18-8.09-14.54
			c-2.33-5.34-4.5-12.67-6.47-21.98c-1.99-9.29-3.87-21.52-5.66-36.66c-1.8-15.13-3.67-34.65-5.64-58.56
			c-1.98-23.9-3.31-43.4-4.02-58.49c-0.71-15.09-0.84-27.38-0.41-36.89c0.44-9.5,1.36-17.01,2.81-22.54
			c1.43-5.53,3.3-10.82,5.59-15.88c2.3-4.78,5.15-8.94,8.5-12.47c3.37-3.53,7.64-6.51,12.85-8.97c5.21-2.45,11.46-4.39,18.79-5.81
			c7.32-1.42,15.82-2.52,25.48-3.32c19.34-1.59,34.2-0.93,44.59,2c10.38,2.93,18.63,8.75,24.76,17.43
			c3.08,4.62,5.79,9.53,8.11,14.74c2.32,5.22,4.48,12.48,6.46,21.78c1.99,9.31,3.86,21.45,5.64,36.45c1.77,15,3.65,34.45,5.63,58.36
			c1.98,23.92,3.31,43.48,4.03,58.69c0.71,15.22,0.86,27.58,0.42,37.08c-0.44,9.51-1.36,17.09-2.79,22.74
			C874.06,2224.09,872.19,2229.31,869.89,2234.1z M814.16,2187.99c0.38-1.92,0.72-4.39,1.01-7.39c0.29-3,0.33-7.47,0.11-13.4
			c-0.22-5.93-0.68-13.94-1.38-24.02c-0.7-10.08-1.72-23.32-3.08-39.71c-1.39-16.93-2.59-30.48-3.56-40.68
			c-0.98-10.19-1.85-18.3-2.62-24.32c-0.76-6.02-1.54-10.48-2.32-13.4c-0.79-2.9-1.53-5.29-2.21-7.13
			c-1.29-2.59-3.07-4.42-5.31-5.44c-2.25-1.04-5.93-1.34-11.02-0.91c-5.11,0.42-8.75,1.34-10.93,2.73c-2.18,1.4-3.57,3.47-4.16,6.23
			c-0.65,1.95-1.05,4.42-1.21,7.4c-0.16,3-0.19,7.52-0.1,13.6s0.49,14.23,1.2,24.45c0.71,10.22,1.76,23.79,3.16,40.72
			c1.35,16.39,2.51,29.61,3.47,39.67s1.89,18.04,2.78,23.9c0.89,5.87,1.66,10.27,2.3,13.19c0.64,2.93,1.44,5.29,2.41,7.1
			c1.02,2.62,2.73,4.37,5.1,5.26c2.37,0.89,6.1,1.12,11.22,0.7c5.1-0.42,8.68-1.25,10.75-2.51
			C811.84,2192.77,813.3,2190.75,814.16,2187.99z M1056.49,2120.93c1.61,9.61,2.77,18.71,3.47,27.3
			c1.34,16.12,1.61,30.23,0.86,42.33c-0.76,12.1-3.64,22.28-8.64,30.52c-5,8.26-12.52,14.69-22.54,19.31
			c-10.03,4.61-23.51,7.62-40.43,9.01c-20.14,1.66-35.68,1.12-46.59-1.64c-10.92-2.75-19.31-8.61-25.18-17.59
			c-3.04-4.07-5.75-8.99-8.11-14.74c-2.37-5.75-4.57-13.55-6.6-23.4c-2.03-9.84-3.95-22.39-5.74-37.67
			c-1.8-15.26-3.68-34.72-5.63-58.36c-1.95-23.63-3.27-42.87-3.95-57.68c-0.68-14.81-0.8-26.98-0.37-36.48
			c0.44-9.5,1.36-17.01,2.81-22.54c1.43-5.52,3.31-10.68,5.61-15.48c4.62-9.57,11.88-16.53,21.8-20.86
			c9.92-4.33,24.56-7.3,43.89-8.9c17.18-1.42,31.17-0.95,41.9,1.42c10.74,2.36,19.23,6.94,25.47,13.72
			c6.24,6.79,10.77,15.82,13.59,27.08c2.82,11.27,4.89,24.95,6.23,41.07c0.31,3.76,0.59,7.93,0.83,12.51
			c0.23,4.58,0.44,9.43,0.59,14.55l-59.24,4.89c-0.67-8.05-1.28-14.76-1.87-20.13c-0.59-5.36-1.14-9.77-1.7-13.25
			c-0.56-3.46-1.12-6.2-1.69-8.18c-0.57-1.98-1.05-3.62-1.42-4.96c-1.5-5.01-7.35-7.1-17.55-6.25c-5.11,0.42-8.75,1.34-10.93,2.73
			c-2.18,1.4-3.57,3.47-4.16,6.23c-0.63,2.22-1.02,4.76-1.2,7.6c-0.16,2.85-0.22,7.18-0.15,13s0.46,13.83,1.17,24.04
			c0.71,10.22,1.74,23.52,3.09,39.91c1.39,16.93,2.58,30.48,3.56,40.68c0.98,10.21,1.91,18.23,2.81,24.11
			c0.89,5.87,1.66,10.27,2.3,13.19c0.64,2.93,1.46,5.42,2.44,7.51c1.02,2.62,2.79,4.37,5.3,5.25c2.51,0.87,6.84,1.06,13.03,0.55
			c8.05-0.67,12.7-3.34,13.94-8.04c0.84-2.77,1.42-5.66,1.72-8.67c0.29-3,0.42-6.32,0.4-9.98c-0.04-3.65-0.18-7.82-0.42-12.54
			c-0.26-4.72-0.64-10.15-1.14-16.34L1056.49,2120.93z M1197.49,2226.95l-49.58-133.85l-4.03,0.33c0.82,3.45,1.4,7.13,1.72,11.01
			c0.33,3.9,0.64,7.73,0.95,11.49l9.44,114.44l-64.88,5.36l-25.17-305.03l64.88-5.36l9.17,111.21c0.27,3.23,0.44,6.12,0.52,8.68
			c0.07,2.56,0.08,5.21,0.04,7.9l4.03-0.33l30.16-131.09l66.49-5.49l0.16,2.02l-35.1,140.02l63.56,160.68l0.16,2.02L1197.49,2226.95
			z"/>
		<path class="st3" d="M1287.74,2219.49l-25.17-305.03l90.66-7.48c13.7-1.13,25.17-0.52,34.44,1.83c9.25,2.34,16.9,6.58,22.96,12.71
			c6.05,6.13,10.64,14.27,13.78,24.42c3.13,10.15,5.31,22.62,6.53,37.39c0.91,11.02,1.31,20.05,1.23,27.08
			c-0.1,7.05-0.83,12.92-2.19,17.62c-1.38,4.71-3.28,8.65-5.72,11.83c-2.44,3.18-5.56,6.28-9.38,9.29l0.23,2.82
			c4.22,2.08,7.97,4.07,11.24,5.97c3.26,1.89,6.23,5.1,8.91,9.61c2.67,4.51,4.91,11.09,6.7,19.73c1.79,8.64,3.34,20.75,4.62,36.33
			c1.21,14.77,1.19,27.43-0.11,37.94c-1.29,10.52-4.29,19.28-8.98,26.3c-4.7,7.02-11.35,12.43-19.96,16.24
			c-8.61,3.83-19.76,6.3-33.47,7.43L1287.74,2219.49z M1354.72,2033.03c6.17-0.5,10.21-3.27,12.09-8.3
			c1.88-5.03,2.26-14.39,1.13-28.09c-0.99-12.09-3.07-19.96-6.21-23.63c-3.15-3.65-7.81-5.23-13.98-4.73l-16.92,1.39l5.36,64.88
			L1354.72,2033.03z M1366.07,2150.96c6.17-0.5,10.52-2.75,13.03-6.76c2.51-3.99,3.28-11.9,2.3-23.73
			c-1.16-13.97-3.18-23.81-6.09-29.52c-2.9-5.71-7.32-8.33-13.22-7.84l-21.76,1.8l5.59,67.7L1366.07,2150.96z M1567.38,2196.42
			l-11.05-70.08l-30.62,2.52l0.98,70.92l-63.67,5.25l7.47-307.72l106.37-8.78l55.79,302.5L1567.38,2196.42z M1528.94,1956.6
			l-4.43,0.37l-1.06,110.03l24.98-2.06L1528.94,1956.6z M1782.95,2178.64L1697.33,2021l-2.41,0.2l13.49,163.59l-57.62,4.76
			l-25.17-305.03l62.06-5.12l51.46,102.45l2.41-0.2l-8.75-105.98l58.02-4.78l25.17,305.03L1782.95,2178.64z M1842.58,2173.72
			l-25.17-305.03l85.02-7.02c19.34-1.59,34.26-0.99,44.77,1.79c10.51,2.78,18.81,8.38,24.91,16.8c3.05,4.35,5.68,9.06,7.86,14.16
			s4.25,12.17,6.21,21.19c1.96,9.03,3.8,20.78,5.55,35.24c1.73,14.46,3.56,33.25,5.46,56.35c1.91,23.11,3.19,42,3.87,56.68
			c0.67,14.69,0.78,26.64,0.33,35.88c-0.45,9.24-1.34,16.61-2.63,22.13c-1.31,5.52-3.12,10.53-5.45,15.06
			c-2.32,4.8-5.22,8.88-8.72,12.28c-3.52,3.41-7.88,6.27-13.08,8.58c-5.22,2.33-11.42,4.18-18.6,5.59
			c-7.18,1.4-15.62,2.51-25.29,3.3L1842.58,2173.72z M1920.45,2099.55c5.1-0.42,8.68-1.25,10.75-2.51c2.06-1.25,3.52-3.26,4.37-6.04
			c0.38-1.92,0.74-4.18,1.06-6.79c0.33-2.59,0.4-6.73,0.19-12.39c-0.2-5.67-0.63-13.27-1.28-22.81c-0.65-9.54-1.62-22.1-2.9-37.69
			c-1.28-15.58-2.4-28.26-3.34-38.06c-0.94-9.8-1.79-17.5-2.52-23.13c-0.74-5.61-1.49-9.74-2.23-12.39
			c-0.76-2.64-1.49-4.88-2.18-6.72c-1.25-2.06-3-3.54-5.23-4.44c-2.25-0.9-5.91-1.13-11.01-0.71l-20.14,1.66l14.32,173.66
			L1920.45,2099.55z"/>
		<path class="st4" d="M1019.86,1723.57c-1.16,13.11-2.11,23.97-2.94,32.96c-20.92,2.77-30.18,1.39-33.84,0.35
			C985.3,1752.82,993.08,1742.42,1019.86,1723.57z"/>
		<path class="st4" d="M1537.02,1523.94c-1.68,3.11-6.62,9.91-20.82,21.37c-0.97-7.49-1.92-14.89-2.83-22.13
			C1527.26,1521.99,1534.04,1523.06,1537.02,1523.94z"/>
		<path class="st4" d="M1543.67,1559.53l36.85,87.99c-1.08,3-9.7,19.8-73.08,57.79c-48.77,29.23-114.5,61.61-185.08,91.17
			c-70.58,29.56-139.76,53.69-194.8,67.93c-71.54,18.52-89.54,12.88-92.46,11.56l-36.85-87.98c1.12,0.04,2.26,0.05,3.43,0.05
			c9.44,0,20.8-1.12,34.23-3.31c58.95-9.66,151.68-39.53,248.07-79.88c91.86-38.48,175.97-82.02,225-116.47
			C1524.28,1577.63,1535.77,1568.1,1543.67,1559.53z"/>
		<path class="st5" d="M1210.15,942.38c7.06,32.23,1.92,57.47-15.02,72.11c-9.05,7.82-18.94,10.66-25.59,11.24
			c3.04-3.79,5.96-7.78,8.76-11.98C1195.17,988.48,1204.16,961.53,1210.15,942.38z"/>
		<path class="st2" d="M1310.93,861.14c7.32,24.84,16.73,69.12,6.77,109.78c-7.69,31.38-33.75,36.56-48.61,36.86
			c-17.72,0.35-31.37-5.89-35.81-10.23c5.23-17.18,6.31-40.39-2.37-71.24C1262.34,907.69,1290.79,883.7,1310.93,861.14z"/>
		<path class="st2" d="M1330.38,684.01c-0.53,2.23-1.06,4.44-1.58,6.62c-3.76,15.54-6.85,26.57-9.32,34.42
			c-1.14-1.66-2.3-3.28-3.49-4.84c-8.63-11.41-26.06-30.28-45.94-28.55c-11.49,0.98-37.16,12.48-76.3,32.92
			c1.31-26.93,2.06-68.41,1.05-86.91c4.03-7.55,18.63-15.32,39.95-16C1267.87,620.62,1309.97,636.56,1330.38,684.01z"/>
		<path class="st2" d="M1170.64,636.59c0.14,1.66,0.23,3.61,0.31,5.81c-25.5-7.51-92.9-6.84-125.18,16.43
			c34.04-9.31,102.01,0.44,125.44,10.98c-0.22,24.79-1.25,54.51-2.32,67.96c-21.91,11.79-47.03,25.66-75.33,41.47
			c-16.8,9.38-32.66,18.23-35.44,19.42c-0.72,0.3-1.46,0.61-2.38,1.24c-11.92-41.7-30.18-120.45-32.05-136.15
			c-1.79-14.83,13.31-78.32,60.27-85.48c24.07-3.68,44.26,7.59,56.98,17.69C1159.15,610.43,1170.06,629.16,1170.64,636.59z"/>
		<path class="st2" d="M1034.08,826.13c-4.37,6.09-9.61,13.57-15.94,22.85c-18.79,27.43-42.31,63.35-64.52,98.55
			c-3.72,5.87-7.77,12.32-12.02,19.16c-12.76-63.09-47.99-189.43-83.89-316.29c-11.61-41.05-21.64-76.5-22.54-81.46
			c-0.48-3.87-2.68-15.83-7.14-40.04c-11.62-63.08-33.26-180.51-37.26-233.05c-2.88-37.82,20.4-52.67,30.52-57.3
			c17.35-7.92,37.28-6.28,47.4,3.91c6.19,6.25,21.54,33.15,59.13,133.42c-21.61,17.25-68.97,34.53-88.29,36.25
			c36.15,9.98,77.78,1.83,98.73-8.07c11.24,30.69,24.17,67.06,39.1,110.18c3.47,10.04,5.04,14.55,5.66,16.2
			c0.68,1.83,1.92,6.19,3.49,12.2c-23.98,15.74-87.8,41.56-119.89,37.99c53.32,21.33,104.1,10.59,127.26-8.14
			c4.22,17.66,8.84,37.61,12.46,53.47c-5.55,16.24-7.6,31.49-6.51,40.62c1.57,13.12,12.2,60.76,22.69,102.11
			c-29.01-1.72-91.75-34.65-101.11-60.07C930.3,777.93,1007.42,815.21,1034.08,826.13z"/>
		<path class="st2" d="M1510.2,314.18c8.22,47.18,2.25,241.3,0.05,255.01l-0.11,0.46c-1.2,4.8-3.01,12.25-5.23,21.74
			c-29.09,5.94-80.36,10.63-103.61,2.55c24.16,31,69.32,36.92,95.69,33.15c-15.11,71.35-34.75,185.26-22.17,247.7
			c2.45,12.22,6.05,27.17,10.23,44.48c26.26,108.79,75.14,311.29-14.2,459.06l-1.92,3.18l0.2,3.72
			c1.84,33.03,6.54,80.21,13.98,140.2c1.88,15.22,3.92,31.14,6.08,47.44c-48.42,32.83-127.78,73.53-214.49,109.85
			c-4.28,1.79-8.56,3.56-12.82,5.31c18.37-115.42-19.64-235.67-19.64-235.67c2.03,20.99,3.46,205.36-6.36,246.13
			c-72.32,28.47-139.76,49.86-188.48,59.73c1.2-13.33,2.68-30.17,4.52-51.57c1.96-22.72,4.09-47.79,6.24-73.16
			c6.77-79.88,13.79-162.49,16.64-185.85l0.25-2c67.05,7.14,215.58-2.77,274.9-62.24c-85.55,25.13-251.98,28.14-306.87,14.5
			c-17.07-27.04-41.15-67.71-71.41-122.09c-49.17-88.3-80.66-151.7-83.45-163.47c1.53-8.57,20.9-49.17,85.03-150.84
			c45.24-71.71,87.08-132.59,95.8-141.38c4.76-2.29,15.44-8.26,36.23-19.85c18.33-10.23,41.19-23,64.35-35.55
			c3.46,24.92,46.5,74.02,130.89,20.75c-74.69,12.73-103.39-15.4-104.81-34.74c2.6-1.38,5.19-2.73,7.75-4.06
			c53.45-27.91,66.08-30.8,68.67-31.03c3.86-0.31,13.63,4.48,24.69,19.11c16.01,21.16,27.77,54.29,19.28,76.65
			c-6.34,16.73-31.67,48.2-72.31,77.73c-41.67,30.29-113.23,55.79-146.41,54.9c0,0,36.94,19.8,85.22,5.26
			c-12.86,37.12-64.46,98.88-124.62,110.69c0,0,39.41,12.46,83.18-7.07c-2.21,12.58-6.25,27.94-12.92,44.12
			c-10.48,25.47-30.35,59.77-65.51,78.56c0,0,90.77,6.1,103.31-125.81c0.35,0.01,0.7,0.04,1.06,0.04c12.99,0,29.09-4.96,42.58-16.13
			c4.12-3.41,8.71-8.01,12.97-14.06c8.31,5.6,19.24,9.31,30.44,11.07c34.82,44.32,81.99,229.97,34.8,309.06
			c0,0,113.75-132.66-6.27-308.94c6.05-0.91,11.77-2.43,17.1-4.51c15.26,10.3,43.16,40.32,72.26,83.51
			c31.64,46.93,51.36,90.12,51.46,112.72c0,0,12.41-49.53-31.52-126.16c-17.4-30.33-47.38-64.58-70.38-83.64
			c9.84-9.16,16.92-21.37,20.52-36.07c3.26-13.34,4.73-26.85,4.97-40c31.59,11.39,77.77,54.2,84.65,71.15
			c-14.85-57.38-62.14-99.57-86.75-107.22c-3.72-28.36-11.27-51.63-15.17-62.29c4.33-6.58,7.69-12.8,9.8-18.4
			c7.86-20.74,4.5-45.21-4.27-67.07c11.28-21.83,23.1-76.88,37.99-149.87c5.75-28.25,12.28-60.26,14.72-65.87
			c3.41-6.08,7.75-24.26,18.23-75.15c29.48-4.77,71.57-4.09,85.17,3.8c-19.96-26.33-55.53-34.15-79.69-30.65
			c0.75-3.69,1.53-7.49,2.32-11.45c10.66-52.61,22.74-112.26,28.37-127.39c3.31-8.84,17.2-14.47,32.3-13.08
			C1489,284.57,1506.61,293.47,1510.2,314.18z"/>
		<path class="st1" d="M1309.69,1447.6c12.58,43.1,16.6,124.87,17.59,164.78C1362.46,1545.29,1330.05,1466.1,1309.69,1447.6z"/>
		<path class="st5" d="M943.8,761.43c-11.34-14.95-19.8-32.5-22.42-52.81c4.47,12.13,21.09,25.97,40.42,37.31
			c-24.79-47.65-26.67-125.98-26.49-153.85c-20.82,1.28-44.49-1.77-68.71-11.46c19.91,2.21,52.01-6.88,79.27-17.87
			c-53.76-18.02-61.28-117.07-62.33-146.31c-14.44,0.72-29.65-0.37-44-4.33c14.16-1.25,43.35-10.87,66.46-22.7l0,0
			c-54.4-16.27-74.58-127.86-53.26-154.98c-9.61-1.94-20.99-0.67-31.44,4.1c-10.12,4.63-33.4,19.49-30.52,57.3
			c3.99,52.55,25.63,169.97,37.26,233.05c4.46,24.19,6.66,36.17,7.14,40.04c0.89,4.95,10.93,40.42,22.54,81.46
			c35.89,126.87,71.13,253.19,83.89,316.29c4.25-6.84,8.3-13.29,12.02-19.16c10.3-16.33,20.88-32.79,31.14-48.51
			C964.75,877.07,949.41,795.13,943.8,761.43z"/>
		<path class="st5" d="M1142.38,661.46c-30.36-6.19-72.21-9.31-96.6-2.63c12.2-8.79,29.39-14.35,47.46-17.47
			c-1.68-13.41,13.71-47.75,32.27-55.48c-11.47-5.96-25.67-10.04-41.55-7.62c-46.96,7.17-62.04,70.66-60.27,85.48
			c1.87,15.7,20.13,94.45,32.05,136.15c0.93-0.63,1.66-0.94,2.38-1.24c2.78-1.19,18.64-10.04,35.44-19.42
			c2.49-1.39,4.96-2.77,7.4-4.13C1083.66,716.66,1123.51,676.57,1142.38,661.46z"/>
		<path class="st5" d="M1249.9,697.64c2.17-16.57,8.03-54.52,18.11-71.37c-11.34-3.56-22.74-4.93-33.26-4.61
			c-21.33,0.68-35.92,8.45-39.95,16c1.01,18.51,0.26,59.99-1.05,86.91C1217.46,712.19,1236.23,703.1,1249.9,697.64z"/>
		<g>
			<path class="st5" d="M1410.74,435.07c7.75-1.13,16.69-1.08,25.91,0.37c-1.8-38.91,29.78-124.81,52.08-148.4
				c-4.88-2.17-10.06-3.42-15-3.88c-15.1-1.39-28.98,4.22-32.3,13.08c-5.64,15.13-17.72,74.77-28.37,127.39
				C1412.27,427.56,1411.47,431.38,1410.74,435.07z"/>
			<path class="st5" d="M1342.07,781.49c13.08-42.38,62.07-128.19,104.26-158.52c-16.91-5.01-33.41-14.12-45.04-29.04
				c6.8,2.37,16.01,3.64,26.35,4.1c-3.79-24.22-14.16-106.58,13.85-139.08c-12.41,0.16-25.22,1.19-36.26,2.97
				c-10.48,50.9-14.81,69.06-18.23,75.15c-2.44,5.61-8.97,37.61-14.72,65.87c-14.89,73-26.71,128.05-37.99,149.87
				C1338.01,762.07,1340.74,771.79,1342.07,781.49z"/>
		</g>
		<path class="st5" d="M1419.23,978.33c0.27-24.26-8.95-81.38-50.83-92.39c5.9-5.06,45.95-10.96,86.83,22.76
			c-10.08-44.82-78.4-85.99-115.24-95.08c-0.56,2.13-1.2,4.22-1.98,6.27c-2.11,5.6-5.45,11.81-9.8,18.4
			c3.9,10.66,11.45,33.93,15.17,62.29C1363.55,906.84,1398.94,936.32,1419.23,978.33z"/>
		<path class="st5" d="M1320.54,1012.71c23,19.06,52.97,53.31,70.38,83.64c12.39,21.59,20.29,41.03,25.26,57.82
			c4.16-79.23-45.76-157.19-73.87-183.04c-0.38,1.84-0.79,3.67-1.24,5.51C1337.45,991.35,1330.38,1003.56,1320.54,1012.71z"/>
		<path class="st5" d="M1213.23,1070.4c24.17,23.85,31.87,117.63,17.7,148.36c41.88-53.09,25.92-163.74,19.46-188.56
			c-10.23-1.91-20.09-5.44-27.73-10.59c-4.25,6.05-8.84,10.66-12.97,14.06c-13.49,11.16-29.58,16.13-42.58,16.13
			c-0.35,0-0.71-0.03-1.06-0.04c-5.38,56.72-25.24,87.91-46.13,105.05C1164.43,1146.15,1201.13,1103.28,1213.23,1070.4z"/>
		<path class="st5" d="M1257.35,1007.04c16.61-22.21,18.46-83.47,13.64-108.49c-12.44,9.92-25.96,19.38-40.08,27.76
			c8.68,30.85,7.59,54.06,2.37,71.24C1236.69,1000.87,1245.48,1005.3,1257.35,1007.04z"/>
		<path class="st5" d="M1195.69,750.69c0.46,6.24,3.77,13.4,10.55,19.8c26.97,6.54,74.73,8.53,81.98,1.84
			c9.77-9.02-11.28-51.88-17.61-56.47c-4.89,1.09-20.4,6.36-67.17,30.77C1200.88,747.96,1198.29,749.33,1195.69,750.69z"/>
		<path class="st5" d="M1429.64,1317.23c-23.9,24.81-138.87,54.24-170.86,54.24c8.41-6.43,27.45-19.31,31.97-89.18
			c-12.93,28.49-99.38,91.02-128.64,79.98c11.95-7.36,54.43-40.45,60.67-77.05c-16.54,22.24-92.86,71.53-125.44,54.99
			c-32.58-16.54-96.13-150.77-88.77-150.77s30.33-6.43,40.45-30.33c-8.27,3.68-44.12,13.79-55.16-6.43c6.43,0.91,40.19,0,61.59-33.1
			c-8.27,5.52-79.06,14.7-77.23-4.4c1.84-19.11,80.62-204.11,93.78-242.09c14.28,21.8,72.93,26.12,98.88,4.51
			c-7.89,1.13-44.74,4.13-65.04-47.75c39.55,12.54,98.05-7.36,121.46-20.67c-36.38-1.73-55.48-28.25-57.72-44.49
			c-23.15,12.55-46.02,25.32-64.35,35.55c-20.8,11.6-31.48,17.55-36.23,19.85c-8.71,8.79-50.56,69.68-95.8,141.38
			c-64.13,101.67-83.51,142.27-85.03,150.84c2.79,11.76,34.29,75.17,83.45,163.47c30.27,54.37,54.33,95.04,71.41,122.09
			c54.89,13.63,221.32,10.63,306.87-14.5c-0.5,0.5-1.04,1.01-1.57,1.51C1388.28,1365.89,1421.2,1342.15,1429.64,1317.23z"/>
		<path class="st5" d="M1075.05,1445.58l-0.25,2c-2.83,23.36-9.85,105.96-16.64,185.85c-2.15,25.39-4.28,50.45-6.24,73.16
			c-1.85,21.41-3.32,38.24-4.52,51.57c38.39-7.77,88.39-22.7,143.24-42.61c16.37-32.17,5.3-228.98-2.83-272.16
			C1144.34,1448.56,1102.74,1448.52,1075.05,1445.58z"/>
		<path class="st5" d="M1274.7,1682.67c11.8-4.95,23.47-9.97,34.95-15.04c7.37-38.74-1.36-151.79-37.23-199.94
			c9.73,48.06,4.58,172.87-2.97,217.16C1271.2,1684.12,1272.95,1683.4,1274.7,1682.67z"/>
		<path class="st6" d="M1171.68,1792.06c6.5-10.83,10.41-31.97,11.88-48.46c-57.83,20.35-109.73,34.91-147.64,41.14
			c-9.87,1.62-18.6,2.64-26.3,3.08l37.71,89.98c6.91,0.15,17.32-0.48,32.79-3.03c116.24-27.72,375.48-161.18,410.98-213.7
			C1452.29,1690.98,1248.93,1774.27,1171.68,1792.06z"/>
		<path class="st3" d="M1580.52,1647.52l-36.85-87.99c-4.57,4.96-10.34,10.22-17.36,15.88l22.48,51.14c0,0-26.59,42.35-118.8,93.85
			c49.14-11.99,121.51-48.95,146.06-66.04C1579.16,1650.66,1580.19,1648.43,1580.52,1647.52z"/>
		<g>
			<path class="st4" d="M1613.5,2087.13c-48.06-4.43-97.24-8.16-147.34-11.15l-3.13,129.05l63.67-5.25l-0.98-70.92l30.62-2.52
				l11.05,70.08l65.27-5.38L1613.5,2087.13z"/>
			<path class="st4" d="M1437.46,2187.88c4.7-7.02,7.69-15.78,8.98-26.3c1.29-10.52,1.34-23.17,0.11-37.94
				c-1.28-15.58-2.83-27.69-4.62-36.33c-1.04-4.99-2.22-9.27-3.56-12.88c-8.94-0.48-17.91-0.94-26.9-1.36
				c-46.09-2.19-91.53-3.68-136.2-4.5l12.46,150.93l96.3-7.94c13.7-1.13,24.86-3.6,33.47-7.43
				C1426.12,2200.31,1432.77,2194.9,1437.46,2187.88z M1379.1,2144.22c-2.51,3.99-6.85,6.24-13.03,6.76l-20.14,1.66l-5.59-67.7
				l21.76-1.8c5.9-0.49,10.32,2.13,13.22,7.84s4.93,15.55,6.09,29.52C1382.38,2132.32,1381.6,2140.22,1379.1,2144.22z"/>
			<path class="st4" d="M1842.58,2173.72l85.02-7.02c9.68-0.8,18.1-1.89,25.29-3.3c7.18-1.4,13.38-3.27,18.6-5.59
				c5.22-2.32,9.58-5.18,13.08-8.59c2.63-2.55,4.92-5.49,6.88-8.82c-48.81-9.63-100.21-18.51-153.81-26.48L1842.58,2173.72z"/>
			<path class="st4" d="M1650.8,2189.54l57.62-4.76l-7.32-88.69c-19.3-2.18-38.81-4.24-58.53-6.2L1650.8,2189.54z"/>
			<path class="st4" d="M1782.95,2178.64l33.05-2.73l-5.44-65.91c-22.93-3.24-46.24-6.32-69.89-9.23L1782.95,2178.64z"/>
		</g>
		<g>
			<path class="st5" d="M543.93,2280.87l63.26-5.22l-9.81-118.87l9.68-0.8c1.88-0.15,3.65,0.04,5.33,0.57
				c1.66,0.55,3.13,1.91,4.4,4.1c1.25,2.19,2.48,5.41,3.64,9.63c1.16,4.24,2.43,9.81,3.82,16.72c3.34,17.58,6.1,31.41,8.3,41.51
				c2.18,10.1,3.92,18,5.21,23.71c1.28,5.71,2.37,9.95,3.28,12.71c0.9,2.77,1.85,5.33,2.86,7.67l67.29-5.55l-0.16-2.02
				c-0.98-2.09-1.77-4.32-2.38-6.7c-0.6-2.38-1.43-5.83-2.48-10.34c-1.05-4.51-2.29-10.49-3.71-17.95
				c-1.43-7.45-3.46-17.29-6.09-29.52c-3.61-17.55-6.96-31.14-10.06-40.76s-5.91-16.75-8.46-21.41c-1.66-3.65-3.42-6.21-5.3-7.67
				c-1.88-1.47-3.68-2.81-5.4-4.02l-0.2-2.41c4.09-2.77,7.66-5.56,10.67-8.38c3.01-2.82,5.45-6.87,7.32-12.17
				c0.08-0.22,0.15-0.46,0.22-0.7c-56.1,8.84-107.48,19.21-153.31,30.96L543.93,2280.87z"/>
			<path class="st5" d="M1077.39,2069.42l13.72,166.31l64.88-5.36l-9.44-114.44c-0.31-3.76-0.63-7.59-0.95-11.49
				s-0.9-7.56-1.72-11.01l4.03-0.33l49.58,133.85l72.52-5.98l-0.16-2.02l-59.77-151.11
				C1164.86,2067.67,1120.58,2068.22,1077.39,2069.42z"/>
			<path class="st5" d="M891.35,2096.02c1.95,23.64,3.82,43.09,5.63,58.37c1.8,15.26,3.72,27.83,5.74,37.67
				c2.03,9.84,4.22,17.65,6.6,23.4c2.37,5.75,5.07,10.67,8.11,14.74c5.87,8.98,14.27,14.85,25.18,17.59
				c10.9,2.75,26.44,3.3,46.59,1.64c16.92-1.39,30.4-4.4,40.43-9.01c10.03-4.61,17.55-11.05,22.54-19.31
				c5-8.26,7.88-18.42,8.64-30.52c0.76-12.09,0.48-26.21-0.86-42.33c-0.71-8.6-1.87-17.7-3.47-27.3l-58.43,4.82
				c0.5,6.19,0.89,11.62,1.14,16.34c0.25,4.71,0.4,8.9,0.42,12.54c0.03,3.65-0.11,6.98-0.4,9.98c-0.3,3-0.87,5.89-1.72,8.67
				c-1.24,4.7-5.89,7.39-13.94,8.04c-6.19,0.5-10.52,0.33-13.03-0.55c-2.51-0.87-4.28-2.62-5.3-5.25c-0.98-2.08-1.8-4.58-2.44-7.51
				c-0.64-2.92-1.42-7.32-2.3-13.19c-0.89-5.87-1.83-13.91-2.81-24.11c-0.98-10.19-2.17-23.75-3.56-40.68
				c-0.45-5.38-0.86-10.41-1.23-15.13c-21.33,1.29-42.3,2.77-62.89,4.42C890.43,2084.61,890.86,2090.17,891.35,2096.02z"/>
			<path class="st5" d="M709.02,2113.49c1.98,23.92,3.84,43.43,5.64,58.56c1.79,15.14,3.68,27.35,5.66,36.66
				c1.99,9.31,4.14,16.64,6.47,21.98c2.33,5.36,5.03,10.21,8.09,14.54c6.15,8.97,14.4,14.84,24.79,17.63
				c10.37,2.79,25.36,3.38,44.97,1.77c9.68-0.8,18.1-1.89,25.29-3.3c7.18-1.4,13.38-3.34,18.59-5.79c5.21-2.45,9.5-5.38,12.86-8.78
				c3.37-3.38,6.2-7.6,8.49-12.67c2.3-4.78,4.17-10.02,5.6-15.67c1.42-5.66,2.36-13.25,2.79-22.74c0.44-9.5,0.29-21.86-0.42-37.08
				c-0.72-15.22-2.06-34.78-4.03-58.69c-0.56-6.73-1.1-13.1-1.65-19.12c-21.34,1.81-42.27,3.82-62.75,6
				c0.44,5.15,0.91,10.71,1.4,16.69c1.35,16.39,2.37,29.63,3.08,39.71c0.7,10.08,1.14,18.1,1.38,24.02
				c0.22,5.93,0.18,10.4-0.11,13.4c-0.3,3-0.63,5.46-1.01,7.39c-0.86,2.78-2.32,4.8-4.37,6.04c-2.06,1.25-5.64,2.08-10.75,2.51
				c-5.11,0.42-8.84,0.19-11.22-0.69c-2.37-0.89-4.07-2.63-5.1-5.26c-0.97-1.81-1.76-4.18-2.41-7.1c-0.64-2.92-1.42-7.32-2.3-13.19
				s-1.83-13.85-2.78-23.9c-0.97-10.06-2.13-23.29-3.47-39.67c-0.45-5.53-0.87-10.68-1.25-15.49c-21.42,2.59-42.29,5.38-62.59,8.37
				C708.26,2104.03,708.63,2108.66,709.02,2113.49z"/>
		</g>
	</g>
</g>
</svg>
