<?xml version="1.0" encoding="utf-8"?>
<!-- Generator: Adobe Illustrator 27.0.0, SVG Export Plug-In . SVG Version: 6.00 Build 0)  -->
<svg version="1.1" xmlns="http://www.w3.org/2000/svg" xmlns:xlink="http://www.w3.org/1999/xlink" x="0px" y="0px"
	 viewBox="0 0 2500 2500" style="enable-background:new 0 0 2500 2500;" xml:space="preserve">
<style type="text/css">
	.st0{display:none;}
	.st1{display:inline;fill:#D94436;}
	.st2{fill:#40342D;}
	.st3{fill:#FFFFFF;}
	.st4{fill:#DD5F86;}
	.st5{fill:#BF3459;}
	.st6{fill:#D6BDA5;}
	.st7{fill:#68253A;}
</style>
<g id="BG" class="st0">
	<rect x="-4.13" class="st1" width="2500" height="2500"/>
</g>
<g id="Logo_00000111180536863283908590000002177075859158545574_">
	<g>
		<path class="st2" d="M701.98,1663.69l102.87-8.49c4.23-0.35,8.33-0.53,12.19-0.53c9.08,0,17.14,0.94,24.64,2.88
			c7.51,1.94,14.4,4.9,20.57,8.83c0.34-0.37,0.69-0.74,1.03-1.11c5.47-5.73,12.16-10.49,19.91-14.14c6.55-3.09,13.8-5.38,22.15-6.99
			c6.6-1.28,14.17-2.27,22.5-2.96c5.9-0.49,11.5-0.73,16.62-0.73c11.1,0,20.44,1.11,28.57,3.41c8.5,2.4,16.19,6.22,22.98,11.39
			c6.21-6.66,13.8-12.02,22.34-15.76c10.98-4.79,25.19-7.85,43.44-9.36c5.7-0.47,11.12-0.71,16.13-0.71c9.38,0,17.59,0.8,25.08,2.45
			c0.22,0.05,0.43,0.1,0.65,0.14l-0.12-1.46l245.98-20.29c4.25-0.35,8.36-0.53,12.24-0.53c9.03,0,17.07,0.92,24.58,2.82
			c6.2,1.58,11.98,3.82,17.31,6.72l0.33-13.51l348.57-28.76c6.08-0.5,11.82-0.76,17.07-0.76c10.73,0,19.8,1.02,27.72,3.12
			c15.51,4.11,28.59,13.01,37.81,25.72l0.27,0.37c3.68,5.23,6.82,10.87,9.37,16.83c2.51,5.89,4.67,13.07,6.61,21.96
			c1.68,7.75,3.19,17.28,4.62,29.14c1.32,11.05,2.72,25.4,4.14,42.66c1.42,17.27,2.41,31.69,2.92,42.88
			c0.55,12.04,0.62,21.75,0.23,29.68c-0.44,9-1.37,16.39-2.84,22.59c-1.58,6.68-3.86,12.97-6.77,18.7
			c-3.47,7.07-7.99,13.33-13.42,18.6c-5.55,5.38-12.21,9.82-19.81,13.2c-6.31,2.81-13.26,4.94-21.22,6.49
			c-6.52,1.27-14.06,2.27-22.42,2.96l-380.04,31.35l0.03-1.24c-5.77,1.31-12.03,2.23-18.87,2.8l-250.12,20.64l-0.14-1.69
			c-10.84,4.64-23.78,7.53-39.49,8.83c-6.47,0.53-12.57,0.81-18.11,0.81c-10.69,0-19.72-0.97-27.6-2.95
			c-9-2.27-17.29-6.25-24.41-11.68c-0.52,0.56-1.04,1.11-1.57,1.64c-5.33,5.36-11.84,9.88-19.36,13.43
			c-6.46,3.05-13.84,5.39-21.95,6.98c-6.51,1.27-14.06,2.27-22.42,2.96c-6.17,0.51-11.98,0.77-17.28,0.77
			c-7.56,0-14.28-0.5-20.33-1.53l-188.88,15.58L701.98,1663.69z"/>
		<path class="st2" d="M1552.06,1442.16c2.94,7,4.82,18.19-2.8,31.64c-4.24,7.48-10.31,13.57-14.51,17.51
			c-10.14,9.52-25.1,20.41-44.47,32.36c-37.87,23.38-90.04,49.38-146.9,73.19c-56.87,23.82-111.99,42.76-155.22,53.35
			c-22.11,5.41-40.36,8.44-54.25,9c-1.73,0.07-3.33,0.1-4.89,0.1c-27.25,0-38.04-12.1-42.3-22.25l-34.98-83.52
			c-3.03-7.25-4.87-18.86,3.62-32.96c4.22-7.01,9.55-12.2,12.11-14.68c7.25-7.05,17.24-14.89,29.76-23.37
			c1.12-13.06,2.29-26.87,3.47-40.83c4.22-49.6,8.55-100.67,11.09-126.1c-19.83-26.61-55.53-89.75-70.87-117.35
			c-5.75-10.34-20.65-37.31-34.75-64.31c-28.6-54.8-29.61-63.3-30.16-67.87c-1.23-10.39,1.7-21.25,22.41-58.15
			c5.54-9.87,12.11-21.13,19.57-33.52c-5.81-38.74-44.23-174.5-63.19-241.49c-15.11-53.38-17.08-60.68-17.6-65.09
			c-0.28-2.13-2.64-14.91-4.92-27.28c-8.65-46.95-24.76-134.32-27.82-174.75c-2.59-34.1,13.85-63.52,42.91-76.8
			c9.79-4.47,20.53-6.83,31.06-6.83c17.16,0,32.58,6.01,43.42,16.94c11.54,11.62,30.17,45.44,88.03,212.76
			c1.7,4.92,3.45,9.97,3.79,10.88c0.59,1.55,1.9,4.98,6.53,23.75c8.89-5.68,18.71-9.4,29.24-11.01c4.07-0.62,8.21-0.93,12.29-0.93
			c24.9,0,44.63,11.52,56.79,21.17c6.21,4.93,11.99,10.62,17,16.68c8.66-3.24,18.47-5.11,28.79-5.44c1.09-0.03,2.2-0.04,3.3-0.04
			c19.16,0,38.81,5.35,55.32,15.09c2.65,1.56,5.22,3.24,7.72,5.02c0.39-1.91,0.77-3.77,1.14-5.6c8.13-39.85,10.46-50.37,13.85-57.12
			c2.6-7.98,10.99-49.41,16.05-74.39c10.73-52.99,17.59-86.05,22.35-98.83c7.43-19.88,28.27-32.72,53.1-32.72
			c2.28,0,4.6,0.11,6.91,0.33c14.64,1.36,27.88,6.89,38.26,16.01c10.64,9.32,17.56,21.72,20.01,35.83
			c6.68,38.4,3.02,187.64-0.44,201.53l-0.13,0.5c-18.58,74.65-33.7,168.06-25.57,208.44c1.67,8.3,4.24,18.94,7.21,31.28
			c20.02,82.92,57.02,236.27-10.26,356.12c1.22,17.84,3.44,40.69,6.61,68.15c9.93,0.59,18.09,2.88,24.42,6.84L1552.06,1442.16z
			 M1519.2,1455.01l-27.04-64.57c-5.8,6.29-14.23,13.27-25.45,21.17c-35.98,25.28-97.7,57.23-165.11,85.47
			c-70.73,29.61-138.78,51.53-182.04,58.62c-9.86,1.61-18.19,2.43-25.12,2.43c-0.86,0-1.7-0.02-2.52-0.04l27.04,64.56
			c2.13,0.97,15.35,5.12,67.85-8.48c40.39-10.45,91.16-28.16,142.95-49.85c51.8-21.7,100.03-45.45,135.82-66.9
			C1512.08,1469.54,1518.4,1457.22,1519.2,1455.01z M1467.63,663.7c1.61-10.05,6-152.5-0.04-187.13
			c-2.65-15.2-15.57-21.73-26.77-22.77c-11.08-1.02-21.27,3.1-23.7,9.6c-4.14,11.1-13,54.87-20.82,93.48
			c-0.58,2.89-1.16,5.69-1.7,8.4c17.73-2.58,43.83,3.17,58.48,22.49c-9.98-5.79-40.87-6.29-62.5-2.79
			c-7.69,37.35-10.87,50.68-13.38,55.15c-1.79,4.12-6.58,27.6-10.8,48.34c-10.93,53.57-19.6,93.97-27.88,109.98
			c6.43,16.04,8.9,34,3.13,49.22c-1.55,4.11-4,8.67-7.19,13.5c2.86,7.82,8.4,24.9,11.13,45.71c18.06,5.62,52.76,36.57,63.66,78.68
			c-5.05-12.43-38.95-43.85-62.12-52.21c-0.19,9.65-1.26,19.56-3.65,29.35c-2.65,10.79-7.84,19.75-15.06,26.47
			c16.88,13.99,38.88,39.12,51.65,61.38c32.24,56.22,23.13,92.58,23.13,92.58c-0.07-16.59-14.54-48.28-37.76-82.72
			c-21.36-31.69-41.83-53.72-53.03-61.28c-3.91,1.53-8.1,2.64-12.55,3.31c88.08,129.37,4.6,226.71,4.6,226.71
			c34.63-58.05,0.01-194.29-25.54-226.8c-8.22-1.29-16.24-4.01-22.34-8.12c-3.12,4.44-6.49,7.82-9.52,10.32
			c-9.9,8.19-21.71,11.84-31.25,11.84c-0.26,0-0.52-0.02-0.78-0.03c-9.2,96.8-75.81,92.32-75.81,92.32
			c25.8-13.79,40.38-38.96,48.07-57.65c4.89-11.88,7.86-23.14,9.48-32.38c-32.12,14.33-61.04,5.19-61.04,5.19
			c44.16-8.67,82.02-53.99,91.45-81.23c-35.43,10.67-62.54-3.86-62.54-3.86c24.35,0.64,76.86-18.06,107.44-40.29
			c29.82-21.68,48.41-44.77,53.06-57.04c6.23-16.41-2.41-40.72-14.15-56.25c-8.12-10.73-15.29-14.25-18.12-14.02
			c-1.9,0.17-11.17,2.29-50.39,22.77c-1.88,0.98-3.78,1.98-5.69,2.98c1.04,14.19,22.1,34.83,76.91,25.49
			c-61.93,39.09-93.51,3.06-96.05-15.23c-16.99,9.21-33.77,18.58-47.22,26.09c-15.26,8.51-23.1,12.88-26.59,14.57
			c-6.39,6.45-37.1,51.13-70.3,103.75c-47.06,74.61-61.28,104.4-62.4,110.69c2.05,8.63,25.16,55.16,61.24,119.96
			c22.21,39.9,39.87,69.74,52.4,89.59c40.28,10,162.41,7.8,225.19-10.64c-43.53,43.65-152.53,50.91-201.73,45.67l-0.18,1.47
			c-2.08,17.14-7.23,77.76-12.21,136.38c-1.58,18.63-3.14,37.02-4.58,53.69c-1.36,15.71-2.44,28.06-3.32,37.84
			c35.75-7.24,85.24-22.94,138.31-43.83c7.21-29.91,6.16-165.22,4.67-180.62c0,0,27.89,88.24,14.41,172.94
			c3.13-1.29,6.27-2.58,9.41-3.9c63.63-26.65,121.87-56.51,157.4-80.61c-1.58-11.96-3.08-23.64-4.46-34.81
			c-5.46-44.02-8.91-78.63-10.26-102.88l-0.15-2.73l1.41-2.33c65.56-108.43,29.69-257.04,10.42-336.87
			c-3.07-12.7-5.71-23.67-7.51-32.64c-9.22-45.82,5.19-129.41,16.27-181.77c-19.35,2.76-52.49-1.58-70.22-24.33
			c17.07,5.94,54.68,2.49,76.03-1.87c1.62-6.96,2.95-12.43,3.84-15.95L1467.63,663.7z M1334.47,752.82c0.39-1.6,0.78-3.22,1.16-4.86
			c-14.98-34.82-45.87-46.51-70.17-45.75c-15.65,0.5-26.36,6.2-29.32,11.74c0.74,13.58,0.19,44.02-0.77,63.78
			c28.72-14.99,47.56-23.43,55.99-24.16c14.59-1.27,27.37,12.58,33.71,20.95c0.86,1.14,1.72,2.33,2.56,3.55
			C1329.44,772.32,1331.71,764.22,1334.47,752.82z M1326.34,958.51c7.3-29.84,0.4-62.33-4.97-80.56
			c-14.78,16.56-35.66,34.16-58.72,47.83c6.37,22.64,5.57,39.67,1.74,52.28c3.26,3.18,13.28,7.76,26.28,7.51
			C1301.56,985.34,1320.7,981.54,1326.34,958.51z M1236.39,990.48c12.43-10.74,16.19-29.26,11.02-52.92
			c-4.39,14.05-11,33.83-23.37,52.37c-2.05,3.08-4.2,6.01-6.43,8.79C1222.49,998.3,1229.75,996.22,1236.39,990.48z M1218.64,717.42
			c-0.06-1.61-0.13-3.04-0.23-4.26c-0.42-5.45-8.42-19.2-21.8-29.82c-9.33-7.41-24.16-15.68-41.81-12.98
			c-34.46,5.26-45.53,51.85-44.23,62.73c1.37,11.52,14.77,69.31,23.52,99.91c0.68-0.46,1.22-0.69,1.75-0.91
			c2.04-0.87,13.68-7.37,26.01-14.25c20.77-11.6,39.2-21.77,55.28-30.43c0.78-9.87,1.54-31.68,1.7-49.87
			c-17.19-7.74-67.07-14.9-92.05-8.06C1150.47,712.4,1199.92,711.91,1218.64,717.42z M1106.5,869.02
			c4.66-6.81,8.49-12.29,11.7-16.77c-19.57-8.01-76.16-35.37-82.7-86.23c6.87,18.64,52.91,42.82,74.2,44.08
			c-7.7-30.34-15.5-65.3-16.65-74.93c-0.8-6.7,0.71-17.89,4.78-29.81c-2.65-11.63-6.03-26.28-9.14-39.24
			c-16.99,13.74-54.26,21.62-93.39,5.97c23.55,2.62,70.38-16.32,87.98-27.88c-1.15-4.41-2.05-7.61-2.56-8.95
			c-0.46-1.21-1.61-4.52-4.15-11.89c-10.94-31.64-20.44-58.33-28.69-80.85c-15.37,7.26-45.92,13.24-72.45,5.92
			c14.18-1.26,48.94-13.94,64.79-26.6c-27.58-73.58-38.85-93.32-43.39-97.91c-7.43-7.48-22.05-8.68-34.78-2.87
			c-7.43,3.4-24.51,14.3-22.4,42.05c2.93,38.56,18.81,124.73,27.34,171.02c3.27,17.75,4.89,26.54,5.24,29.38
			c0.65,3.63,8.02,29.66,16.54,59.78c26.34,93.1,52.2,185.8,61.56,232.1c3.12-5.02,6.09-9.75,8.82-14.06
			C1075.45,915.51,1092.71,889.15,1106.5,869.02z"/>
		<path class="st3" d="M831.84,1913.73c-0.74-1.73-1.44-3.6-2.1-5.63c-0.67-2.03-1.47-5.14-2.41-9.33
			c-0.94-4.19-2.21-9.99-3.82-17.4c-1.61-7.41-3.63-17.56-6.09-30.46c-1.01-5.07-1.95-9.17-2.8-12.27c-0.85-3.1-1.74-5.46-2.67-7.07
			c-0.93-1.61-2-2.61-3.23-3.01c-1.22-0.39-2.53-0.54-3.91-0.42l-7.1,0.59l7.2,87.23l-46.42,3.83l-18.47-223.84l67.71-5.59
			c10.05-0.83,18.43-0.38,25.12,1.35c6.69,1.73,12.16,4.85,16.4,9.36c4.24,4.52,7.42,10.51,9.52,17.97c2.1,7.47,3.6,16.63,4.5,27.46
			c0.96,11.63,1.31,20.78,1.07,27.45c-0.24,6.67-1.05,11.95-2.42,15.83c-1.37,3.89-3.16,6.86-5.37,8.93
			c-2.21,2.07-4.82,4.12-7.83,6.15l0.15,1.77c1.26,0.89,2.58,1.87,3.96,2.95c1.38,1.08,2.67,2.96,3.89,5.63
			c1.87,3.42,3.94,8.66,6.21,15.71c2.27,7.06,4.73,17.03,7.38,29.91c1.93,8.97,3.42,16.19,4.47,21.66
			c1.05,5.47,1.95,9.86,2.72,13.17c0.77,3.31,1.38,5.84,1.82,7.59c0.44,1.75,1.02,3.39,1.75,4.92l0.12,1.48L831.84,1913.73z
			 M807.31,1785.96c4.33-0.36,7.24-2.43,8.71-6.23c1.47-3.79,1.78-10.91,0.92-21.36c-0.73-8.87-2.25-14.7-4.57-17.49
			c-2.31-2.79-5.74-3.99-10.27-3.62l-11.83,0.98l4.03,48.79L807.31,1785.96z M997.71,1885.46c-1.68,3.71-3.75,6.81-6.23,9.3
			c-2.47,2.49-5.62,4.63-9.44,6.44c-3.82,1.8-8.37,3.22-13.64,4.25c-5.27,1.03-11.46,1.84-18.56,2.42c-14.39,1.19-25.39,0.76-33-1.3
			c-7.61-2.05-13.67-6.36-18.19-12.94c-2.25-3.19-4.23-6.74-5.94-10.67c-1.71-3.92-3.3-9.3-4.75-16.13
			c-1.46-6.82-2.84-15.79-4.15-26.9c-1.32-11.1-2.69-25.43-4.14-42.97c-1.45-17.54-2.43-31.85-2.95-42.92
			c-0.52-11.07-0.62-20.09-0.3-27.07c0.32-6.97,1-12.48,2.06-16.54c1.05-4.06,2.42-7.94,4.1-11.65c1.69-3.51,3.78-6.56,6.24-9.15
			c2.47-2.59,5.61-4.78,9.43-6.58c3.82-1.8,8.41-3.22,13.79-4.26c5.37-1.04,11.61-1.85,18.7-2.44c14.19-1.17,25.1-0.68,32.72,1.47
			c7.62,2.15,13.67,6.42,18.17,12.79c2.26,3.39,4.25,6.99,5.95,10.82c1.7,3.83,3.29,9.16,4.74,15.98
			c1.46,6.83,2.83,15.74,4.14,26.75c1.3,11.01,2.68,25.28,4.13,42.83c1.45,17.55,2.43,31.91,2.96,43.07
			c0.52,11.17,0.63,20.24,0.31,27.21c-0.32,6.98-1,12.54-2.05,16.69C1000.77,1878.11,999.4,1881.95,997.71,1885.46z M956.81,1851.62
			c0.28-1.41,0.53-3.22,0.74-5.42c0.21-2.2,0.24-5.48,0.08-9.83c-0.16-4.35-0.5-10.23-1.01-17.63c-0.51-7.4-1.26-17.11-2.26-29.14
			c-1.02-12.42-1.9-22.37-2.61-29.85c-0.72-7.48-1.36-13.43-1.92-17.85c-0.56-4.42-1.13-7.69-1.7-9.83
			c-0.58-2.13-1.12-3.88-1.62-5.23c-0.95-1.9-2.25-3.24-3.9-3.99c-1.65-0.76-4.35-0.98-8.09-0.67c-3.75,0.31-6.42,0.98-8.02,2
			c-1.6,1.03-2.62,2.55-3.05,4.57c-0.48,1.43-0.77,3.24-0.89,5.43c-0.12,2.2-0.14,5.52-0.07,9.98c0.07,4.46,0.36,10.44,0.88,17.94
			c0.52,7.5,1.29,17.46,2.32,29.88c0.99,12.03,1.84,21.73,2.55,29.11c0.71,7.38,1.39,13.23,2.04,17.54
			c0.65,4.31,1.22,7.54,1.69,9.68c0.47,2.15,1.06,3.88,1.77,5.21c0.75,1.92,2,3.21,3.74,3.86c1.74,0.65,4.48,0.82,8.23,0.51
			c3.74-0.31,6.37-0.92,7.89-1.84C955.12,1855.14,956.18,1853.66,956.81,1851.62z M1134.64,1802.41c1.18,7.05,2.03,13.73,2.55,20.03
			c0.98,11.83,1.18,22.18,0.63,31.06c-0.56,8.88-2.67,16.35-6.34,22.4c-3.67,6.06-9.19,10.78-16.54,14.17
			c-7.36,3.38-17.25,5.59-29.67,6.61c-14.78,1.22-26.18,0.82-34.19-1.2c-8.01-2.02-14.17-6.32-18.48-12.91
			c-2.23-2.99-4.22-6.6-5.95-10.82c-1.74-4.22-3.35-9.94-4.84-17.17c-1.49-7.22-2.9-16.43-4.21-27.64
			c-1.32-11.2-2.7-25.48-4.13-42.83c-1.43-17.34-2.4-31.46-2.9-42.33c-0.5-10.87-0.59-19.8-0.27-26.77c0.32-6.97,1-12.48,2.06-16.54
			c1.05-4.05,2.43-7.84,4.12-11.36c3.39-7.02,8.72-12.13,16-15.31c7.28-3.18,18.02-5.36,32.21-6.53c12.61-1.04,22.87-0.7,30.75,1.04
			c7.88,1.73,14.11,5.09,18.69,10.07c4.58,4.98,7.9,11.61,9.97,19.87c2.07,8.27,3.59,18.31,4.57,30.14
			c0.23,2.76,0.43,5.82,0.61,9.18c0.17,3.36,0.32,6.92,0.43,10.68l-43.47,3.59c-0.49-5.91-0.94-10.83-1.37-14.77
			c-0.43-3.93-0.84-7.17-1.25-9.72c-0.41-2.54-0.82-4.55-1.24-6c-0.42-1.45-0.77-2.66-1.04-3.64c-1.1-3.68-5.39-5.21-12.88-4.59
			c-3.75,0.31-6.42,0.98-8.02,2c-1.6,1.03-2.62,2.55-3.05,4.57c-0.46,1.63-0.75,3.49-0.88,5.58c-0.12,2.09-0.16,5.27-0.11,9.54
			c0.05,4.27,0.34,10.15,0.86,17.64c0.52,7.5,1.28,17.26,2.27,29.29c1.02,12.42,1.89,22.37,2.61,29.85
			c0.72,7.49,1.4,13.38,2.06,17.69c0.65,4.31,1.22,7.54,1.69,9.68c0.47,2.15,1.07,3.98,1.79,5.51c0.75,1.92,2.05,3.21,3.89,3.85
			c1.84,0.64,5.02,0.78,9.56,0.4c5.91-0.49,9.32-2.45,10.23-5.9c0.62-2.03,1.04-4.15,1.26-6.36c0.21-2.2,0.31-4.64,0.29-7.32
			c-0.03-2.68-0.13-5.74-0.31-9.2c-0.19-3.46-0.47-7.45-0.84-11.99L1134.64,1802.41z M1238.11,1880.21l-36.38-98.22l-2.96,0.24
			c0.6,2.53,1.03,5.23,1.26,8.08c0.24,2.86,0.47,5.67,0.7,8.43l6.93,83.98l-47.61,3.93l-18.47-223.84l47.61-3.93l6.73,81.61
			c0.2,2.37,0.32,4.49,0.38,6.37c0.05,1.88,0.06,3.82,0.03,5.8l2.96-0.24l22.13-96.2l48.79-4.03l0.12,1.48l-25.76,102.75
			l46.64,117.91l0.12,1.48L1238.11,1880.21z"/>
		<path class="st4" d="M1304.35,1874.75l-18.47-223.84l66.53-5.49c10.05-0.83,18.47-0.38,25.27,1.34c6.79,1.72,12.4,4.83,16.85,9.33
			c4.44,4.5,7.81,10.47,10.11,17.92c2.3,7.45,3.9,16.6,4.79,27.44c0.67,8.09,0.96,14.71,0.9,19.87c-0.07,5.17-0.61,9.48-1.61,12.93
			c-1.01,3.46-2.41,6.35-4.2,8.68c-1.79,2.33-4.09,4.61-6.88,6.82l0.17,2.07c3.1,1.53,5.85,2.99,8.25,4.38
			c2.39,1.39,4.57,3.74,6.54,7.05c1.96,3.31,3.6,8.14,4.92,14.48c1.31,6.34,2.45,15.23,3.39,26.66c0.89,10.84,0.87,20.13-0.08,27.84
			c-0.95,7.72-3.15,14.15-6.59,19.3c-3.45,5.15-8.33,9.12-14.65,11.92c-6.32,2.81-14.5,4.62-24.56,5.45L1304.35,1874.75z
			 M1353.49,1737.92c4.53-0.37,7.49-2.4,8.87-6.09c1.38-3.69,1.66-10.56,0.83-20.61c-0.73-8.87-2.25-14.65-4.56-17.34
			c-2.31-2.68-5.73-3.84-10.26-3.47l-12.42,1.02l3.93,47.61L1353.49,1737.92z M1361.82,1824.46c4.53-0.37,7.72-2.02,9.56-4.96
			c1.84-2.93,2.41-8.73,1.69-17.41c-0.85-10.25-2.33-17.47-4.47-21.66c-2.13-4.19-5.37-6.11-9.7-5.75l-15.97,1.32l4.1,49.68
			L1361.82,1824.46z M1509.55,1857.82l-8.11-51.43l-22.47,1.85l0.72,52.04l-46.72,3.85l5.48-225.81l78.06-6.44l40.94,221.98
			L1509.55,1857.82z M1481.34,1681.82l-3.25,0.27l-0.78,80.74l18.33-1.51L1481.34,1681.82z M1667.74,1844.77l-62.83-115.68
			l-1.77,0.15l9.9,120.05l-42.28,3.49l-18.47-223.84l45.54-3.76l37.76,75.18l1.77-0.15l-6.42-77.77l42.58-3.51l18.47,223.84
			L1667.74,1844.77z M1711.5,1841.16l-18.47-223.84l62.39-5.15c14.19-1.17,25.14-0.73,32.85,1.31c7.71,2.04,13.8,6.15,18.28,12.33
			c2.24,3.19,4.17,6.65,5.77,10.39c1.6,3.74,3.12,8.93,4.56,15.55c1.44,6.63,2.79,15.25,4.07,25.86c1.27,10.61,2.61,24.4,4.01,41.35
			c1.4,16.96,2.34,30.82,2.84,41.59c0.49,10.78,0.57,19.55,0.24,26.33c-0.33,6.78-0.98,12.19-1.93,16.24
			c-0.96,4.05-2.29,7.73-4,11.05c-1.7,3.52-3.83,6.52-6.4,9.01c-2.58,2.5-5.78,4.6-9.6,6.3c-3.83,1.71-8.38,3.07-13.65,4.1
			c-5.27,1.03-11.46,1.84-18.56,2.42L1711.5,1841.16z M1768.64,1786.73c3.74-0.31,6.37-0.92,7.89-1.84c1.51-0.92,2.58-2.4,3.21-4.43
			c0.28-1.41,0.54-3.07,0.78-4.98c0.24-1.9,0.29-4.94,0.14-9.09c-0.15-4.16-0.46-9.74-0.94-16.74c-0.48-7-1.19-16.22-2.13-27.66
			c-0.94-11.43-1.76-20.74-2.45-27.93c-0.69-7.19-1.31-12.84-1.85-16.97c-0.54-4.12-1.09-7.15-1.64-9.09
			c-0.56-1.94-1.09-3.58-1.6-4.93c-0.92-1.51-2.2-2.6-3.84-3.26c-1.65-0.66-4.34-0.83-8.08-0.52l-14.78,1.22l10.51,127.44
			L1768.64,1786.73z"/>
		<path class="st5" d="M1107.76,1510.82c-0.85,9.62-1.55,17.59-2.16,24.19c-15.35,2.03-22.15,1.02-24.83,0.26
			C1082.4,1532.28,1088.12,1524.65,1107.76,1510.82z"/>
		<path class="st5" d="M1487.27,1364.32c-1.23,2.28-4.86,7.27-15.28,15.68c-0.71-5.5-1.41-10.93-2.08-16.24
			C1480.11,1362.89,1485.09,1363.68,1487.27,1364.32z"/>
		<path class="st5" d="M1492.16,1390.45l27.04,64.57c-0.79,2.2-7.12,14.53-53.63,42.41c-35.79,21.45-84.02,45.21-135.82,66.9
			c-51.79,21.69-102.56,39.4-142.95,49.85c-52.5,13.59-65.71,9.45-67.85,8.48l-27.04-64.56c0.82,0.03,1.66,0.04,2.52,0.04
			c6.93,0,15.26-0.82,25.12-2.43c43.26-7.09,111.31-29.01,182.04-58.62c67.41-28.24,129.13-60.19,165.11-85.47
			C1477.92,1403.72,1486.35,1396.73,1492.16,1390.45z"/>
		<path class="st6" d="M1247.41,937.56c5.18,23.65,1.41,42.17-11.02,52.92c-6.64,5.74-13.9,7.82-18.78,8.25
			c2.23-2.78,4.37-5.71,6.43-8.79C1236.41,971.39,1243.01,951.61,1247.41,937.56z"/>
		<path class="st3" d="M1321.36,877.95c5.37,18.23,12.28,50.72,4.97,80.56c-5.64,23.03-24.77,26.83-35.67,27.05
			c-13,0.26-23.02-4.32-26.28-7.51c3.84-12.61,4.63-29.64-1.74-52.28C1285.7,912.1,1306.58,894.51,1321.36,877.95z"/>
		<path class="st3" d="M1335.63,747.96c-0.39,1.64-0.78,3.26-1.16,4.86c-2.76,11.4-5.03,19.5-6.84,25.26
			c-0.84-1.22-1.69-2.41-2.56-3.55c-6.33-8.37-19.12-22.22-33.71-20.95c-8.43,0.72-27.27,9.16-55.99,24.16
			c0.96-19.76,1.51-50.2,0.77-63.78c2.96-5.54,13.67-11.24,29.32-11.74C1289.76,701.45,1320.65,713.14,1335.63,747.96z"/>
		<path class="st3" d="M1218.41,713.16c0.1,1.22,0.17,2.65,0.23,4.26c-18.71-5.51-68.17-5.02-91.86,12.06
			c24.98-6.83,74.86,0.32,92.05,8.06c-0.16,18.19-0.92,40-1.7,49.87c-16.08,8.65-34.51,18.83-55.28,30.43
			c-12.33,6.88-23.97,13.38-26.01,14.25c-0.53,0.22-1.07,0.45-1.75,0.91c-8.75-30.6-22.15-88.39-23.52-99.91
			c-1.31-10.88,9.77-57.47,44.23-62.73c17.66-2.7,32.48,5.57,41.81,12.98C1209.99,693.96,1217.99,707.71,1218.41,713.16z"/>
		<path class="st3" d="M1118.21,852.25c-3.21,4.47-7.05,9.96-11.7,16.77c-13.79,20.13-31.05,46.49-47.35,72.32
			c-2.73,4.31-5.7,9.04-8.82,14.06c-9.36-46.3-35.22-139.01-61.56-232.1c-8.52-30.12-15.88-56.14-16.54-59.78
			c-0.35-2.84-1.97-11.62-5.24-29.38c-8.53-46.29-24.41-132.46-27.34-171.02c-2.11-27.75,14.97-38.65,22.4-42.05
			c12.73-5.81,27.36-4.61,34.78,2.87c4.54,4.59,15.81,24.33,43.39,97.91c-15.86,12.66-50.61,25.34-64.79,26.6
			c26.53,7.32,57.08,1.34,72.45-5.92c8.25,22.52,17.74,49.21,28.69,80.85c2.55,7.37,3.7,10.68,4.15,11.89
			c0.5,1.34,1.41,4.54,2.56,8.95c-17.6,11.55-64.43,30.5-87.98,27.88c39.13,15.65,76.39,7.77,93.39-5.97
			c3.1,12.96,6.49,27.6,9.14,39.24c-4.07,11.92-5.58,23.11-4.78,29.81c1.15,9.63,8.95,44.59,16.65,74.93
			c-21.29-1.26-67.33-25.43-74.2-44.08C1042.04,816.88,1098.64,844.25,1118.21,852.25z"/>
		<path class="st3" d="M1467.59,476.58c6.03,34.62,1.65,177.07,0.04,187.13l-0.08,0.34c-0.88,3.52-2.21,8.99-3.84,15.95
			c-21.35,4.36-58.97,7.8-76.03,1.87c17.73,22.75,50.87,27.09,70.22,24.33c-11.09,52.36-25.5,135.95-16.27,181.77
			c1.8,8.97,4.44,19.94,7.51,32.64c19.27,79.83,55.14,228.43-10.42,336.87l-1.41,2.33l0.15,2.73c1.35,24.24,4.8,58.86,10.26,102.88
			c1.38,11.17,2.88,22.85,4.46,34.81c-35.53,24.09-93.77,53.96-157.4,80.61c-3.14,1.31-6.28,2.61-9.41,3.9
			c13.48-84.7-14.41-172.94-14.41-172.94c1.49,15.4,2.54,150.7-4.67,180.62c-53.07,20.89-102.56,36.59-138.31,43.83
			c0.88-9.78,1.97-22.14,3.32-37.84c1.44-16.67,3-35.07,4.58-53.69c4.97-58.62,10.12-119.24,12.21-136.38l0.18-1.47
			c49.2,5.24,158.2-2.03,201.73-45.67c-62.78,18.44-184.91,20.65-225.19,10.64c-12.53-19.84-30.2-49.69-52.4-89.59
			c-36.08-64.8-59.19-111.32-61.24-119.96c1.12-6.29,15.34-36.08,62.4-110.69c33.2-52.62,63.9-97.3,70.3-103.75
			c3.49-1.68,11.33-6.06,26.59-14.57c13.45-7.51,30.23-16.88,47.22-26.09c2.54,18.29,34.12,54.32,96.05,15.23
			c-54.81,9.34-75.87-11.3-76.91-25.49c1.91-1.01,3.81-2,5.69-2.98c39.22-20.48,48.49-22.6,50.39-22.77
			c2.83-0.23,10,3.29,18.12,14.02c11.75,15.53,20.38,39.84,14.15,56.25c-4.65,12.28-23.24,35.36-53.06,57.04
			c-30.58,22.23-83.09,40.94-107.44,40.29c0,0,27.11,14.53,62.54,3.86c-9.44,27.24-47.3,72.56-91.45,81.23
			c0,0,28.92,9.14,61.04-5.19c-1.62,9.23-4.59,20.5-9.48,32.38c-7.69,18.69-22.27,43.86-48.07,57.65c0,0,66.61,4.48,75.81-92.32
			c0.26,0.01,0.51,0.03,0.78,0.03c9.53,0,21.35-3.64,31.25-11.84c3.02-2.5,6.39-5.88,9.52-10.32c6.1,4.11,14.12,6.83,22.34,8.12
			c25.55,32.52,60.17,168.76,25.54,226.8c0,0,83.47-97.35-4.6-226.71c4.44-0.67,8.64-1.78,12.55-3.31
			c11.2,7.56,31.67,29.59,53.03,61.28c23.22,34.44,37.69,66.13,37.76,82.72c0,0,9.11-36.35-23.13-92.58
			c-12.77-22.26-34.77-47.39-51.65-61.38c7.22-6.72,12.42-15.68,15.06-26.47c2.39-9.79,3.47-19.7,3.65-29.35
			c23.18,8.36,57.07,39.77,62.12,52.21c-10.9-42.11-45.6-73.07-63.66-78.68c-2.73-20.81-8.27-37.89-11.13-45.71
			c3.18-4.83,5.64-9.39,7.19-13.5c5.77-15.22,3.3-33.18-3.13-49.22c8.28-16.02,16.95-56.42,27.88-109.98
			c4.22-20.73,9.01-44.22,10.8-48.34c2.5-4.46,5.69-17.8,13.38-55.15c21.63-3.5,52.52-3,62.5,2.79
			c-14.65-19.32-40.75-25.06-58.48-22.49c0.55-2.71,1.12-5.5,1.7-8.4c7.82-38.61,16.69-82.38,20.82-93.48
			c2.43-6.49,12.62-10.62,23.7-9.6C1452.03,454.84,1464.95,461.37,1467.59,476.58z"/>
		<path class="st2" d="M1320.45,1308.3c9.23,31.63,12.18,91.63,12.91,120.92C1359.17,1380,1335.4,1321.89,1320.45,1308.3z"/>
		<path class="st6" d="M1051.96,804.78c-8.32-10.97-14.53-23.85-16.45-38.75c3.28,8.9,15.48,19.06,29.66,27.38
			c-18.19-34.97-19.57-92.45-19.44-112.9c-15.28,0.94-32.65-1.3-50.42-8.41c14.61,1.62,38.17-5.05,58.17-13.11
			c-39.45-13.22-44.97-85.91-45.74-107.37c-10.6,0.53-21.76-0.27-32.29-3.18c10.39-0.92,31.81-7.98,48.77-16.66l0,0
			c-39.92-11.94-54.73-93.83-39.08-113.73c-7.05-1.42-15.4-0.49-23.07,3.01c-7.43,3.4-24.51,14.3-22.4,42.05
			c2.93,38.56,18.81,124.73,27.34,171.02c3.27,17.75,4.89,26.54,5.24,29.38c0.65,3.63,8.02,29.66,16.54,59.78
			c26.34,93.1,52.2,185.8,61.56,232.1c3.12-5.02,6.09-9.75,8.82-14.06c7.56-11.98,15.32-24.06,22.85-35.6
			C1067.32,889.63,1056.06,829.51,1051.96,804.78z"/>
		<path class="st6" d="M1197.67,731.41c-22.28-4.54-52.99-6.83-70.89-1.93c8.95-6.45,21.57-10.53,34.83-12.82
			c-1.23-9.84,10.06-35.04,23.68-40.71c-8.42-4.37-18.84-7.37-30.49-5.59c-34.46,5.26-45.53,51.85-44.23,62.73
			c1.37,11.52,14.77,69.31,23.52,99.91c0.68-0.46,1.22-0.69,1.75-0.91c2.04-0.87,13.68-7.37,26.01-14.25
			c1.83-1.02,3.64-2.03,5.43-3.03C1154.58,771.92,1183.83,742.5,1197.67,731.41z"/>
		<path class="st6" d="M1276.57,757.96c1.59-12.16,5.89-40.01,13.29-52.37c-8.32-2.61-16.69-3.62-24.41-3.38
			c-15.65,0.5-26.36,6.2-29.32,11.74c0.74,13.58,0.19,44.02-0.77,63.78C1252.77,768.65,1266.54,761.97,1276.57,757.96z"/>
		<g>
			<path class="st6" d="M1394.6,565.28c5.69-0.83,12.25-0.79,19.01,0.27c-1.32-28.55,21.85-91.59,38.22-108.9
				c-3.58-1.59-7.38-2.51-11.01-2.85c-11.08-1.02-21.27,3.1-23.7,9.6c-4.14,11.1-13,54.87-20.82,93.48
				C1395.72,559.78,1395.15,562.57,1394.6,565.28z"/>
			<path class="st6" d="M1344.22,819.49c9.6-31.1,45.55-94.07,76.51-116.33c-12.41-3.68-24.52-10.36-33.05-21.31
				c4.99,1.74,11.75,2.67,19.34,3.01c-2.78-17.77-10.39-78.21,10.16-102.06c-9.11,0.12-18.51,0.87-26.61,2.18
				c-7.69,37.35-10.87,50.68-13.38,55.15c-1.79,4.12-6.58,27.6-10.8,48.34c-10.93,53.57-19.6,93.97-27.88,109.98
				C1341.24,805.24,1343.24,812.37,1344.22,819.49z"/>
		</g>
		<path class="st6" d="M1400.83,963.94c0.2-17.8-6.57-59.72-37.3-67.8c4.33-3.71,33.72-8.04,63.72,16.7
			c-7.4-32.89-57.53-63.1-84.57-69.77c-0.41,1.56-0.88,3.1-1.45,4.6c-1.55,4.11-4,8.67-7.19,13.5c2.86,7.82,8.4,24.9,11.13,45.71
			C1359.98,911.48,1385.94,933.11,1400.83,963.94z"/>
		<path class="st6" d="M1328.41,989.17c16.88,13.99,38.87,39.12,51.65,61.38c9.09,15.84,14.89,30.11,18.54,42.43
			c3.05-58.14-33.58-115.35-54.21-134.32c-0.28,1.35-0.58,2.69-0.91,4.04C1340.83,973.49,1335.63,982.45,1328.41,989.17z"/>
		<path class="st6" d="M1249.66,1031.5c17.74,17.5,23.39,86.32,12.99,108.87c30.73-38.96,19.02-120.16,14.28-138.37
			c-7.51-1.4-14.74-3.99-20.35-7.77c-3.12,4.44-6.49,7.82-9.52,10.32c-9.9,8.19-21.71,11.84-31.25,11.84
			c-0.26,0-0.52-0.02-0.78-0.03c-3.95,41.62-18.52,64.51-33.85,77.09C1213.85,1087.1,1240.79,1055.64,1249.66,1031.5z"/>
		<path class="st6" d="M1282.04,985.01c12.19-16.3,13.55-61.25,10.01-79.61c-9.13,7.28-19.05,14.22-29.41,20.37
			c6.37,22.64,5.57,39.67,1.74,52.28C1266.88,980.49,1273.33,983.73,1282.04,985.01z"/>
		<path class="st6" d="M1236.8,796.9c0.34,4.58,2.77,9.83,7.74,14.53c19.79,4.8,54.84,6.26,60.16,1.35
			c7.17-6.62-8.28-38.07-12.92-41.44c-3.59,0.8-14.97,4.67-49.29,22.58C1240.61,794.89,1238.7,795.89,1236.8,796.9z"/>
		<path class="st6" d="M1408.48,1212.63c-17.54,18.21-101.91,39.8-125.38,39.8c6.17-4.72,20.14-14.17,23.46-65.44
			c-9.49,20.91-72.93,66.79-94.4,58.69c8.77-5.4,39.94-29.68,44.52-56.54c-12.14,16.32-68.14,52.49-92.05,40.35
			c-23.91-12.14-70.54-110.64-65.14-110.64c5.4,0,22.26-4.72,29.68-22.26c-6.07,2.7-32.38,10.12-40.48-4.72
			c4.72,0.67,29.49,0,45.2-24.29c-6.07,4.05-58.02,10.79-56.67-3.23c1.35-14.02,59.16-149.78,68.82-177.65
			c10.48,16,53.52,19.17,72.56,3.31c-5.79,0.83-32.83,3.03-47.73-35.04c29.02,9.2,71.95-5.4,89.13-15.17
			c-26.7-1.27-40.71-20.73-42.36-32.65c-16.99,9.21-33.77,18.58-47.22,26.09c-15.26,8.51-23.1,12.88-26.59,14.57
			c-6.39,6.45-37.1,51.13-70.3,103.75c-47.06,74.61-61.28,104.4-62.4,110.69c2.05,8.63,25.16,55.16,61.24,119.96
			c22.21,39.9,39.87,69.74,52.4,89.59c40.28,10,162.41,7.8,225.19-10.64c-0.37,0.37-0.76,0.74-1.15,1.11
			C1378.13,1248.35,1402.28,1230.93,1408.48,1212.63z"/>
		<path class="st6" d="M1148.26,1306.82l-0.18,1.47c-2.08,17.14-7.23,77.76-12.21,136.38c-1.58,18.63-3.14,37.02-4.58,53.69
			c-1.36,15.71-2.44,28.06-3.32,37.84c28.17-5.7,64.86-16.66,105.11-31.27c12.01-23.61,3.89-168.03-2.08-199.72
			C1199.11,1309.01,1168.58,1308.99,1148.26,1306.82z"/>
		<path class="st6" d="M1294.77,1480.81c8.66-3.63,17.22-7.32,25.65-11.04c5.41-28.43-1-111.39-27.32-146.72
			c7.14,35.27,3.36,126.86-2.18,159.36C1292.21,1481.87,1293.49,1481.34,1294.77,1480.81z"/>
		<path class="st7" d="M1219.18,1561.08c4.77-7.95,7.64-23.46,8.72-35.56c-42.44,14.93-80.52,25.62-108.34,30.19
			c-7.24,1.19-13.65,1.94-19.3,2.26l27.67,66.03c5.07,0.11,12.71-0.35,24.06-2.22c85.3-20.34,275.54-118.28,301.59-156.82
			C1425.1,1486.9,1275.87,1548.02,1219.18,1561.08z"/>
		<path class="st4" d="M1519.2,1455.01l-27.04-64.57c-3.35,3.64-7.59,7.5-12.74,11.65l16.5,37.53c0,0-19.51,31.08-87.18,68.87
			c36.06-8.8,89.17-35.92,107.18-48.46C1518.19,1457.31,1518.95,1455.69,1519.2,1455.01z"/>
		<g>
			<path class="st5" d="M1543.39,1777.62c-35.27-3.25-71.36-5.99-108.12-8.18l-2.3,94.7l46.72-3.85l-0.72-52.04l22.47-1.85
				l8.11,51.43l47.9-3.95L1543.39,1777.62z"/>
			<path class="st5" d="M1414.22,1851.54c3.45-5.15,5.64-11.58,6.59-19.3c0.95-7.72,0.98-17,0.08-27.84
				c-0.94-11.43-2.08-20.32-3.39-26.66c-0.76-3.66-1.63-6.8-2.61-9.45c-6.56-0.35-13.14-0.69-19.74-1
				c-33.82-1.61-67.17-2.7-99.95-3.3l9.14,110.76l70.67-5.83c10.05-0.83,18.24-2.64,24.56-5.45
				C1405.89,1860.67,1410.77,1856.69,1414.22,1851.54z M1371.38,1819.5c-1.84,2.93-5.03,4.58-9.56,4.96l-14.78,1.22l-4.1-49.68
				l15.97-1.32c4.33-0.36,7.57,1.56,9.7,5.75c2.13,4.19,3.62,11.41,4.47,21.66C1373.79,1810.77,1373.23,1816.57,1371.38,1819.5z"/>
			<path class="st5" d="M1711.5,1841.16l62.39-5.15c7.1-0.59,13.28-1.39,18.56-2.42c5.27-1.03,9.82-2.4,13.65-4.1
				c3.83-1.7,7.03-3.8,9.6-6.3c1.93-1.87,3.61-4.03,5.05-6.47c-35.82-7.07-73.54-13.58-112.87-19.43L1711.5,1841.16z"/>
			<path class="st5" d="M1570.76,1852.77l42.28-3.49l-5.37-65.08c-14.16-1.6-28.48-3.11-42.95-4.55L1570.76,1852.77z"/>
			<path class="st5" d="M1667.74,1844.77l24.25-2l-3.99-48.37c-16.83-2.38-33.93-4.64-51.29-6.77L1667.74,1844.77z"/>
		</g>
		<g>
			<path class="st6" d="M758.51,1919.78l46.42-3.83l-7.2-87.23l7.1-0.59c1.38-0.11,2.68,0.03,3.91,0.42c1.22,0.4,2.3,1.4,3.23,3.01
				c0.92,1.61,1.82,3.97,2.67,7.07c0.85,3.11,1.78,7.2,2.8,12.27c2.45,12.9,4.48,23.05,6.09,30.46c1.6,7.41,2.88,13.21,3.82,17.4
				c0.94,4.19,1.74,7.3,2.41,9.33c0.66,2.03,1.36,3.91,2.1,5.63l49.38-4.07l-0.12-1.48c-0.72-1.53-1.3-3.17-1.75-4.92
				c-0.44-1.75-1.05-4.28-1.82-7.59c-0.77-3.31-1.68-7.7-2.72-13.17c-1.05-5.47-2.54-12.69-4.47-21.66
				c-2.65-12.88-5.11-22.85-7.38-29.91c-2.27-7.06-4.34-12.29-6.21-15.71c-1.22-2.68-2.51-4.56-3.89-5.63
				c-1.38-1.08-2.7-2.06-3.96-2.95l-0.15-1.77c3-2.03,5.62-4.08,7.83-6.15c2.21-2.07,4-5.04,5.37-8.93
				c0.06-0.16,0.11-0.34,0.16-0.51c-41.17,6.49-78.87,14.1-112.5,22.72L758.51,1919.78z"/>
			<path class="st6" d="M1149.98,1764.61l10.07,122.04l47.61-3.93l-6.93-83.98c-0.23-2.76-0.46-5.57-0.7-8.43
				c-0.24-2.86-0.66-5.55-1.26-8.08l2.96-0.24l36.38,98.22l53.22-4.39l-0.12-1.48l-43.86-110.89
				C1214.17,1763.34,1181.67,1763.73,1149.98,1764.61z"/>
			<path class="st6" d="M1013.46,1784.13c1.43,17.35,2.8,31.62,4.13,42.83c1.32,11.2,2.73,20.42,4.21,27.64
				c1.49,7.22,3.1,12.95,4.84,17.17c1.74,4.22,3.72,7.83,5.95,10.82c4.31,6.59,10.47,10.9,18.48,12.91c8,2.02,19.4,2.42,34.19,1.2
				c12.42-1.02,22.31-3.23,29.67-6.61c7.36-3.38,12.88-8.11,16.54-14.17c3.67-6.06,5.78-13.52,6.34-22.4
				c0.56-8.87,0.35-19.23-0.63-31.06c-0.52-6.31-1.37-12.99-2.55-20.03l-42.88,3.54c0.37,4.54,0.65,8.53,0.84,11.99
				c0.18,3.46,0.29,6.53,0.31,9.2c0.02,2.68-0.08,5.12-0.29,7.32c-0.22,2.2-0.64,4.32-1.26,6.36c-0.91,3.45-4.32,5.42-10.23,5.9
				c-4.54,0.37-7.72,0.24-9.56-0.4c-1.84-0.64-3.14-1.92-3.89-3.85c-0.72-1.53-1.32-3.36-1.79-5.51c-0.47-2.14-1.04-5.37-1.69-9.68
				c-0.65-4.31-1.34-10.21-2.06-17.69c-0.72-7.48-1.59-17.43-2.61-29.85c-0.33-3.95-0.63-7.64-0.9-11.1
				c-15.65,0.95-31.04,2.03-46.15,3.24C1012.78,1775.76,1013.11,1779.85,1013.46,1784.13z"/>
			<path class="st6" d="M879.66,1796.96c1.45,17.55,2.82,31.87,4.14,42.97c1.31,11.11,2.7,20.07,4.15,26.9
				c1.46,6.83,3.04,12.21,4.75,16.13c1.71,3.93,3.69,7.49,5.94,10.67c4.51,6.58,10.57,10.89,18.19,12.94
				c7.61,2.05,18.61,2.48,33,1.3c7.1-0.59,13.28-1.39,18.56-2.42c5.27-1.03,9.82-2.45,13.64-4.25c3.82-1.8,6.97-3.95,9.44-6.44
				c2.47-2.48,4.55-5.58,6.23-9.3c1.69-3.51,3.06-7.35,4.11-11.5c1.04-4.15,1.73-9.72,2.05-16.69c0.32-6.97,0.21-16.04-0.31-27.21
				c-0.53-11.17-1.51-25.52-2.96-43.07c-0.41-4.94-0.81-9.61-1.21-14.03c-15.66,1.33-31.02,2.8-46.05,4.4
				c0.32,3.78,0.67,7.86,1.03,12.25c0.99,12.03,1.74,21.74,2.26,29.14c0.51,7.4,0.84,13.28,1.01,17.63
				c0.16,4.35,0.13,7.63-0.08,9.83c-0.22,2.2-0.46,4.01-0.74,5.42c-0.63,2.04-1.7,3.52-3.21,4.43c-1.51,0.92-4.14,1.53-7.89,1.84
				c-3.75,0.31-6.49,0.14-8.23-0.51c-1.74-0.65-2.99-1.93-3.74-3.86c-0.71-1.33-1.29-3.07-1.77-5.21c-0.47-2.14-1.04-5.37-1.69-9.68
				c-0.65-4.31-1.34-10.16-2.04-17.54c-0.71-7.38-1.56-17.09-2.55-29.11c-0.33-4.06-0.64-7.84-0.92-11.37
				c-15.72,1.9-31.03,3.95-45.93,6.14C879.1,1790.01,879.37,1793.41,879.66,1796.96z"/>
		</g>
	</g>
	<g>
		<path d="M518.73,1976.4l19.94,235.46l-47.5,4.02l-37.26-104.65l9.07,107.04l-45.31,3.84l-19.94-235.46l45.31-3.84l39.36,103.45
			l-8.98-106.02L518.73,1976.4z"/>
		<path d="M634.17,1966.62l50.94,232.83l-55.39,4.69l-6.49-42.08l-19.39,1.64l0.33,42.6l-56.03,4.75l7.7-237.8L634.17,1966.62z
			 M618.27,2120.45c-5-26.44-10.55-59.17-16.63-98.2c-1.7,45.56-2.38,78.81-2.02,99.78L618.27,2120.45z"/>
		<path d="M841.59,1949.05l19.94,235.46l-47.37,4.01l-13.53-158.96l-5.39,160.56l-33.6,2.85l-33.05-153.64l13.09,155.33l-47.37,4.01
			l-19.94-235.46l70.13-5.94c3.28,13.98,6.84,30.48,10.67,49.51l12.77,59.24l3.14-111L841.59,1949.05z"/>
		<path d="M863.35,1947.21l90.37-7.65l3.99,47.12l-36.17,3.06l3.78,44.65l33.86-2.87l3.79,44.79l-33.86,2.87l4.39,51.78l39.78-3.37
			l3.99,47.12l-93.97,7.96L863.35,1947.21z"/>
		<path d="M1151.07,2010.14l-54.2,4.59l-1.81-21.38c-1.14-13.47-2.37-21.87-3.69-25.17c-1.32-3.31-3.91-4.8-7.77-4.47
			c-3.35,0.28-5.5,1.93-6.45,4.94c-0.96,3.01-0.92,10.53,0.09,22.55l9.57,113c0.9,10.57,2.08,17.47,3.57,20.72
			c1.48,3.24,4.03,4.71,7.63,4.41c3.95-0.33,6.47-2.45,7.57-6.35c1.1-3.9,1.18-11.33,0.25-22.29l-2.37-27.92l-10.94,0.93
			l-3.03-35.78l63.46-5.38l10.71,126.38l-34.06,2.88l-6.44-16.45c-3.08,7.58-7.28,13.43-12.59,17.55
			c-5.32,4.11-11.8,6.49-19.44,7.14c-9.11,0.77-17.84-1-26.21-5.32c-8.37-4.32-14.92-9.99-19.67-17.01
			c-4.75-7.02-7.98-14.53-9.7-22.54c-1.72-8.01-3.26-20.11-4.63-36.3l-5.93-69.95c-1.91-22.49-2.22-38.92-0.93-49.28
			c1.28-10.36,6.65-20.21,16.1-29.56c9.45-9.35,22.24-14.7,38.38-16.07c15.88-1.34,29.36,1.23,40.46,7.71
			c11.09,6.48,18.66,14.66,22.69,24.52c4.03,9.86,6.87,24.44,8.5,43.74L1151.07,2010.14z"/>
		<path d="M1164.71,1921.69l90.37-7.65l3.99,47.12l-36.17,3.06l3.78,44.65l33.86-2.87l3.79,44.79l-33.86,2.87l4.39,51.77l39.78-3.37
			l3.99,47.12l-93.97,7.96L1164.71,1921.69z"/>
		<path d="M1395.27,1902.16l19.94,235.46l-47.5,4.02l-37.26-104.65l9.07,107.04l-45.31,3.84l-19.94-235.46l45.31-3.84l39.36,103.45
			l-8.98-106.02L1395.27,1902.16z"/>
		<path d="M1417.02,1900.31l90.37-7.65l3.99,47.12l-36.17,3.06l3.78,44.65l33.86-2.87l3.79,44.79l-33.86,2.87l4.39,51.77l39.78-3.37
			l3.99,47.12l-93.97,7.96L1417.02,1900.31z"/>
		<path d="M1526.57,1891.03l38.36-3.25c25.57-2.17,42.98-2.52,52.23-1.05c9.24,1.47,17.11,6.53,23.59,15.21
			c6.48,8.68,10.57,23.05,12.27,43.12c1.55,18.32,0.58,30.81-2.92,37.45c-3.5,6.65-11.12,11.1-22.85,13.36
			c10.98,2.1,18.53,5.51,22.65,10.24c4.12,4.73,6.81,9.16,8.06,13.31c1.26,4.14,2.69,15.72,4.3,34.72l5.26,62.1l-50.33,4.26
			l-6.63-78.24c-1.07-12.6-2.61-20.33-4.62-23.19c-2.01-2.85-6.75-3.97-14.22-3.34l8.99,106.17l-54.2,4.59L1526.57,1891.03z
			 M1584.18,1926.73l4.43,52.36c6.09-0.52,10.28-1.82,12.57-3.92c2.29-2.1,2.99-8.33,2.11-18.71l-1.1-12.94
			c-0.63-7.47-2.23-12.26-4.78-14.39C1594.86,1927,1590.45,1926.2,1584.18,1926.73z"/>
		<path d="M1762.25,1871.07l50.94,232.83l-55.39,4.69l-6.49-42.08l-19.39,1.64l0.33,42.6l-56.03,4.75l7.7-237.8L1762.25,1871.07z
			 M1746.35,2024.9c-5-26.44-10.55-59.17-16.63-98.2c-1.7,45.55-2.38,78.81-2.02,99.78L1746.35,2024.9z"/>
		<path d="M1897.06,1859.65l3.99,47.12l-32.18,2.73l15.95,188.34l-54.2,4.59l-15.95-188.34l-32.05,2.72l-3.99-47.12L1897.06,1859.65
			z"/>
		<path d="M2044.94,1985.99c2,23.66,2.93,40.45,2.78,50.37c-0.15,9.92-2.48,19.18-6.98,27.76c-4.5,8.58-10.99,15.43-19.46,20.54
			c-8.47,5.11-18.58,8.17-30.34,9.16c-11.16,0.94-21.35-0.27-30.58-3.64c-9.23-3.37-16.9-8.94-23-16.73
			c-6.1-7.78-10.08-16.48-11.93-26.09c-1.85-9.61-3.8-26.53-5.86-50.77l-3.41-40.29c-2-23.66-2.93-40.45-2.78-50.37
			c0.15-9.92,2.48-19.18,6.98-27.76c4.5-8.58,10.99-15.43,19.46-20.54c8.47-5.11,18.58-8.17,30.34-9.16
			c11.15-0.94,21.35,0.27,30.58,3.64c9.23,3.37,16.9,8.95,23,16.73c6.1,7.78,10.08,16.48,11.93,26.09
			c1.85,9.61,3.8,26.53,5.86,50.77L2044.94,1985.99z M1984.19,1913.21c-0.93-10.96-2.06-17.92-3.39-20.88
			c-1.33-2.96-3.67-4.3-7.02-4.02c-2.83,0.24-4.9,1.66-6.19,4.26c-1.29,2.6-1.43,9.96-0.4,22.08l9.31,109.95
			c1.16,13.67,2.37,22.06,3.62,25.18c1.26,3.12,3.69,4.52,7.29,4.22c3.69-0.31,5.89-2.35,6.61-6.13c0.72-3.77,0.49-12.59-0.68-26.45
			L1984.19,1913.21z"/>
		<path d="M2053.47,1846.4l38.36-3.25c25.57-2.17,42.98-2.52,52.23-1.05c9.24,1.47,17.1,6.53,23.59,15.21
			c6.48,8.68,10.57,23.05,12.27,43.12c1.55,18.32,0.58,30.81-2.92,37.45c-3.5,6.65-11.12,11.1-22.85,13.36
			c10.98,2.1,18.53,5.51,22.65,10.24c4.12,4.73,6.81,9.16,8.06,13.31c1.26,4.14,2.69,15.72,4.3,34.72l5.26,62.1l-50.33,4.26
			l-6.63-78.24c-1.07-12.6-2.61-20.33-4.62-23.19c-2.01-2.85-6.75-3.97-14.22-3.34l8.99,106.17l-54.2,4.59L2053.47,1846.4z
			 M2111.08,1882.1l4.43,52.36c6.09-0.52,10.28-1.82,12.57-3.92c2.29-2.1,2.99-8.33,2.11-18.71l-1.1-12.94
			c-0.63-7.47-2.23-12.26-4.78-14.39C2121.75,1882.37,2117.34,1881.57,2111.08,1882.1z"/>
	</g>
	<g>
		<g>
			<polygon class="st6" points="399.48,1977.54 462.13,1972.23 478.72,2015.95 474.92,1971.15 540.01,1965.63 561.64,2221.02 
				496.65,2226.53 482.83,2187.62 486.2,2227.41 421.12,2232.92 			"/>
			<path d="M530.89,1976.44l19.94,235.46l-47.34,4.01l-37.16-104.66l9.07,107.04l-45.16,3.83l-19.94-235.46l45.16-3.83l39.26,103.46
				l-8.98-106.02L530.89,1976.44 M549.13,1954.82l-19.93,1.69l-45.16,3.83l-15.24,1.29h0l-15.03,1.27l-45.16,3.83l-19.93,1.69
				l1.69,19.93l19.94,235.46l1.69,19.93l19.93-1.69l45.16-3.83l13.71-1.16l14.39-1.22l47.34-4.01l19.93-1.69l-1.69-19.93
				l-19.94-235.46L549.13,1954.82L549.13,1954.82z"/>
		</g>
		<g>
			<polygon class="st6" points="558.16,1964.1 653.83,1955.99 708.97,2208.54 633.11,2214.97 626.62,2172.89 625.84,2172.96 
				626.17,2215.55 549.91,2222.01 			"/>
			<path d="M645.94,1966.7l50.83,232.84l-55.2,4.68l-6.48-42.08l-19.32,1.64l0.34,42.6l-55.84,4.73l7.61-237.79L645.94,1966.7
				 M611.54,2122.09l18.59-1.57c-4.99-26.44-10.53-59.17-16.6-98.2C611.85,2067.87,611.18,2101.13,611.54,2122.09 M661.73,1945.29
				l-17.49,1.48l-78.07,6.61l-17.73,1.5l-0.57,17.79l-7.61,237.79l-0.72,22.47l22.4-1.9l55.84-4.73l6.86-0.58l0,0l18.61-1.58
				l55.2-4.68l22.71-1.92l-4.86-22.27l-50.83-232.84L661.73,1945.29L661.73,1945.29z"/>
		</g>
		<g>
			<path class="st6" d="M675.19,1954.18l88.46-7.49l1.97,8.41c1.9,8.11,3.91,17.14,6,26.99l1.01-36.16l89.14-7.55l21.63,255.39
				l-67.14,5.69l-0.03-0.36l-0.01,0.37l-51.11,4.33l-1.91-8.9l0.76,9l-67.14,5.69L675.19,1954.18z"/>
			<path d="M852.65,1949.19l19.94,235.46l-47.21,4l-13.53-158.96l-5.33,160.55l-33.48,2.84l-32.98-153.65l13.09,155.33l-47.21,4
				L686,1963.3l69.89-5.92c3.27,13.98,6.82,30.49,10.65,49.51l12.74,59.24l3.1-111L852.65,1949.19 M870.89,1927.57l-19.93,1.69
				l-70.27,5.95l-9.27,0.79l0,0l-17.22,1.46l-69.89,5.92l-19.93,1.69l1.69,19.93l19.94,235.46l1.69,19.93l19.93-1.69l47.21-4
				l2.34-0.2h0l17.55-1.49l33.48-2.84l0.31-0.03l18.55-1.57l47.21-4l19.93-1.69l-1.69-19.93l-19.94-235.46L870.89,1927.57
				L870.89,1927.57z"/>
		</g>
		<g>
			<polygon class="st6" points="863.52,1938.23 973.51,1928.91 979.19,1995.96 943.14,1999.02 945.23,2023.74 978.98,2020.88 
				984.46,2085.6 950.72,2088.46 953.41,2120.31 993.06,2116.95 998.74,2184 885.15,2193.62 			"/>
			<path d="M964.39,1939.72l3.99,47.12l-36.05,3.05l3.78,44.65l33.74-2.86l3.79,44.79l-33.74,2.86l4.39,51.77l39.64-3.36l3.99,47.12
				l-93.65,7.93l-19.94-235.46L964.39,1939.72 M982.63,1918.1l-19.93,1.69l-90.06,7.63l-19.93,1.69l1.69,19.93l19.94,235.46
				l1.69,19.93l19.93-1.69l93.65-7.93l19.93-1.69l-1.69-19.93l-3.99-47.12l-1.69-19.93l-19.93,1.69l-19.71,1.67l-1.01-11.92
				l13.81-1.17l19.93-1.69l-1.69-19.93l-3.79-44.79l-1.69-19.93l-19.93,1.69l-13.81,1.17l-0.41-4.79l16.12-1.37l19.93-1.69
				l-1.69-19.93l-3.99-47.12L982.63,1918.1L982.63,1918.1z"/>
		</g>
		<g>
			<path class="st6" d="M1097.33,2180.42c-9.19,0-18.16-2.23-26.64-6.63c-9.8-5.08-17.64-11.91-23.3-20.3
				c-5.43-8.05-9.18-16.81-11.16-26.04c-1.82-8.49-3.39-20.78-4.81-37.55l-5.93-69.96c-1.98-23.41-2.28-40.2-0.9-51.35
				c1.55-12.59,7.91-24.51,18.92-35.43c11.08-11,26.04-17.36,44.44-18.92c2.98-0.25,5.92-0.38,8.76-0.38
				c14.18,0,26.78,3.17,37.46,9.43c12.95,7.59,21.97,17.47,26.82,29.37c4.45,10.91,7.46,26.18,9.19,46.67l1.71,20.14l-71.46,6.05
				l0.21,2.47l71.46-6.05l12.39,146.31l-51.35,4.35l-2.07-5.29c-1.32,1.33-2.71,2.56-4.17,3.69c-6.83,5.3-15.12,8.39-24.66,9.2
				C1100.61,2180.35,1098.96,2180.42,1097.33,2180.42z"/>
			<path d="M1096.72,1923.86c12.44,0,23.24,2.69,32.41,8.06c11.06,6.48,18.6,14.66,22.62,24.52c4.02,9.86,6.85,24.45,8.49,43.74
				l0.86,10.18l-54.01,4.57l-1.81-21.38c-1.14-13.47-2.37-21.87-3.68-25.18c-1.2-3.01-3.44-4.51-6.74-4.51
				c-0.33,0-0.66,0.01-1.01,0.04c-3.34,0.28-5.48,1.93-6.43,4.94c-0.95,3.01-0.92,10.53,0.1,22.55l9.57,113
				c0.9,10.57,2.08,17.47,3.56,20.72c1.35,2.97,3.59,4.45,6.71,4.45c0.29,0,0.59-0.01,0.9-0.04c3.93-0.33,6.45-2.45,7.54-6.35
				s1.17-11.33,0.24-22.29l-2.37-27.92l-10.9,0.92l-3.03-35.78l63.25-5.36l10.71,126.38l-33.94,2.88l-6.42-16.45
				c-3.06,7.58-7.25,13.43-12.54,17.54c-5.3,4.11-11.76,6.49-19.37,7.13c-1.37,0.12-2.73,0.17-4.09,0.17
				c-7.61,0-14.96-1.83-22.04-5.51c-8.34-4.32-14.88-9.99-19.61-17.02c-4.73-7.02-7.96-14.54-9.67-22.54
				c-1.71-8.01-3.25-20.11-4.63-36.3l-5.93-69.95c-1.91-22.49-2.22-38.92-0.94-49.28c1.27-10.36,6.62-20.21,16.04-29.56
				c9.42-9.34,22.16-14.69,38.24-16.06C1091.51,1923.97,1094.15,1923.86,1096.72,1923.86 M1096.72,1903.86v20V1903.86
				L1096.72,1903.86L1096.72,1903.86c-3.12,0-6.35,0.14-9.61,0.42c-20.81,1.76-37.85,9.09-50.64,21.79
				c-12.64,12.54-19.97,26.44-21.8,41.31c-1.46,11.84-1.18,29.31,0.87,53.41l5.93,69.95c1.46,17.19,3.09,29.88,5,38.79
				c2.24,10.49,6.5,20.43,12.65,29.55c6.6,9.79,15.68,17.73,26.99,23.59c9.92,5.14,20.43,7.75,31.24,7.75
				c1.91,0,3.85-0.08,5.77-0.25c8.67-0.73,16.54-3.07,23.48-6.97l14.86-1.26l33.94-2.88l19.93-1.69l-1.69-19.93l-10.71-126.38
				l-0.21-2.47l0,0l-1.69-19.93l-0.86-10.18c-1.82-21.52-5.06-37.74-9.89-49.6c-5.71-13.98-16.14-25.5-31.02-34.22
				C1127,1907.49,1112.7,1903.86,1096.72,1903.86L1096.72,1903.86z"/>
		</g>
		<g>
			<polygon class="st6" points="1163.86,1912.79 1273.85,1903.47 1279.53,1970.52 1243.48,1973.58 1245.57,1998.3 1279.31,1995.44 
				1284.79,2060.16 1251.05,2063.02 1253.75,2094.87 1293.39,2091.51 1299.07,2158.56 1185.49,2168.18 			"/>
			<path d="M1264.73,1914.28l3.99,47.12l-36.05,3.05l3.78,44.65l33.74-2.86l3.79,44.79l-33.74,2.86l4.39,51.77l39.64-3.36
				l3.99,47.12l-93.65,7.93l-19.94-235.46L1264.73,1914.28 M1282.97,1892.67l-19.93,1.69l-90.06,7.63l-19.93,1.69l1.69,19.93
				l19.94,235.46l1.69,19.93l19.93-1.69l93.65-7.93l19.93-1.69l-1.69-19.93l-3.99-47.12l-1.69-19.93l-19.93,1.69l-19.71,1.67
				l-1.01-11.92l13.81-1.17l19.93-1.69l-1.69-19.93l-3.79-44.79l-1.69-19.93l-19.93,1.69l-13.81,1.17l-0.41-4.79l16.12-1.37
				l19.93-1.69l-1.69-19.93l-3.99-47.12L1282.97,1892.67L1282.97,1892.67z"/>
		</g>
		<g>
			<polygon class="st6" points="1273.03,1903.54 1335.67,1898.24 1352.27,1941.96 1348.47,1897.15 1413.56,1891.64 1435.19,2147.03 
				1370.2,2152.53 1356.38,2113.62 1359.75,2153.42 1294.67,2158.93 			"/>
			<path d="M1404.44,1902.45l19.94,235.46l-47.34,4.01l-37.16-104.66l9.07,107.04l-45.16,3.82l-19.94-235.46l45.16-3.83
				l39.26,103.46l-8.98-106.02L1404.44,1902.45 M1422.68,1880.83l-19.93,1.69l-45.16,3.83l-15.24,1.29v0l-15.03,1.27l-45.16,3.83
				l-19.93,1.69l1.69,19.93l19.94,235.46l1.69,19.93l19.93-1.69l45.16-3.82l12.72-1.08v0l15.37-1.3l47.34-4.01l19.93-1.69
				l-1.69-19.93l-19.94-235.46L1422.68,1880.83L1422.68,1880.83z"/>
		</g>
		<g>
			<polygon class="st6" points="1415.31,1891.49 1525.3,1882.17 1530.98,1949.22 1494.93,1952.28 1497.02,1977 1530.76,1974.14 
				1536.25,2038.86 1502.51,2041.72 1505.2,2073.57 1544.85,2070.21 1550.53,2137.26 1436.94,2146.88 			"/>
			<path d="M1516.18,1892.98l3.99,47.12l-36.05,3.05l3.78,44.65l33.74-2.86l3.79,44.79l-33.74,2.86l4.39,51.78l39.64-3.36
				l3.99,47.12l-93.65,7.93l-19.94-235.46L1516.18,1892.98 M1534.42,1871.37l-19.93,1.69l-90.06,7.63l-19.93,1.69l1.69,19.93
				l19.94,235.46l1.69,19.93l19.93-1.69l93.65-7.93l19.93-1.69l-1.69-19.93l-3.99-47.12l-1.69-19.93l-19.93,1.69l-19.71,1.67
				l-1.01-11.92l13.81-1.17l19.93-1.69l-1.69-19.93l-3.79-44.79l-1.69-19.93l-19.93,1.69l-13.81,1.17l-0.41-4.79l16.12-1.37
				l19.93-1.69l-1.69-19.93l-3.99-47.12L1534.42,1871.37L1534.42,1871.37z"/>
		</g>
		<g>
			<path class="st6" d="M1524.49,1882.24l48.2-4.08c15.39-1.3,28.08-1.96,37.73-1.96c6.98,0,12.45,0.33,16.74,1.01
				c11.84,1.89,21.92,8.32,29.96,19.12c7.67,10.3,12.31,26.09,14.19,48.25c1.76,20.74,0.48,34.38-4.01,42.94
				c-1.57,3-3.66,5.68-6.25,8.03c1.79,1.33,3.37,2.79,4.74,4.37c5.09,5.86,8.38,11.41,10.06,16.96c1.02,3.36,2.47,10.58,4.69,36.78
				l6.11,72.07l-70.09,5.94l-70.43,5.97L1524.49,1882.24z"/>
			<path d="M1610.41,1886.2c6.39,0,11.44,0.3,15.17,0.89c9.21,1.47,17.05,6.54,23.51,15.22s10.55,23.06,12.25,43.13
				c1.55,18.32,0.59,30.81-2.9,37.45c-3.49,6.65-11.08,11.1-22.77,13.35c10.95,2.1,18.47,5.52,22.58,10.25
				c4.1,4.73,6.78,9.17,8.04,13.31c1.26,4.14,2.69,15.72,4.3,34.72l5.26,62.1l-50.16,4.25l-6.63-78.24
				c-1.07-12.6-2.61-20.34-4.61-23.19c-1.65-2.34-5.12-3.51-10.41-3.51c-1.17,0-2.42,0.06-3.76,0.17l8.99,106.17l-54.01,4.57
				l-19.94-235.46l38.23-3.24C1588.71,1886.84,1601,1886.2,1610.41,1886.2 M1597.16,1979.43c6.07-0.51,10.25-1.82,12.53-3.92
				c2.28-2.1,2.98-8.33,2.1-18.71l-1.1-12.94c-0.63-7.47-2.22-12.26-4.77-14.39c-2.04-1.7-5.27-2.56-9.68-2.56
				c-1.1,0-2.27,0.05-3.51,0.16L1597.16,1979.43 M1610.41,1866.2v20V1866.2c-10.07,0-22.68,0.65-38.57,2l-38.23,3.24l-19.93,1.69
				l1.69,19.93l19.94,235.46l1.69,19.93l19.93-1.69l54.01-4.57l19.93-1.69l46.66-3.95l19.93-1.69l-1.69-19.93l-5.26-62.1
				c-2.28-26.9-3.79-34.56-5.09-38.83c-1.95-6.43-5.5-12.71-10.82-19.13c0.55-0.87,1.06-1.77,1.55-2.68
				c5.49-10.46,7.07-25.4,5.12-48.43c-2.04-24.08-7.32-41.54-16.13-53.38c-9.52-12.78-22.11-20.75-36.41-23.03
				C1623.91,1866.57,1617.92,1866.2,1610.41,1866.2L1610.41,1866.2z"/>
		</g>
		<g>
			<polygon class="st6" points="1682.39,1868.87 1778.07,1860.76 1833.2,2113.32 1757.34,2119.74 1750.86,2077.67 1750.07,2077.73 
				1750.41,2120.33 1674.14,2126.79 			"/>
			<path d="M1770.17,1871.47l50.83,232.84l-55.2,4.68l-6.48-42.08l-19.32,1.64l0.34,42.6l-55.84,4.73l7.61-237.79L1770.17,1871.47
				 M1735.78,2026.87l18.59-1.57c-4.99-26.44-10.53-59.17-16.6-98.2C1736.08,1972.65,1735.42,2005.9,1735.78,2026.87
				 M1785.97,1850.06l-17.49,1.48l-78.07,6.61l-17.73,1.5l-0.57,17.79l-7.61,237.79l-0.72,22.47l22.4-1.9l55.84-4.73l6.86-0.58l0,0
				l18.61-1.58l55.2-4.68l22.71-1.92l-4.86-22.27l-50.83-232.84L1785.97,1850.06L1785.97,1850.06z"/>
		</g>
		<g>
			<polygon class="st6" points="1813.31,1925.31 1781.37,1928.02 1775.69,1860.97 1913.64,1849.28 1919.32,1916.33 1887.25,1919.05 
				1903.2,2107.39 1829.26,2113.65 			"/>
			<path d="M1904.52,1860.09l3.99,47.12l-32.07,2.72l15.95,188.34l-54.01,4.57l-15.95-188.34l-31.95,2.71l-3.99-47.12
				L1904.52,1860.09 M1922.77,1838.47l-19.93,1.69l-118.03,10l-19.93,1.69l1.69,19.93l3.99,47.12l1.69,19.93l19.93-1.69l12.02-1.02
				l14.26,168.41l1.69,19.93l19.93-1.69l54.01-4.57l19.93-1.69l-1.69-19.93l-14.26-168.41l12.14-1.03l19.93-1.69l-1.69-19.93
				l-3.99-47.12L1922.77,1838.47L1922.77,1838.47z"/>
		</g>
		<g>
			<path class="st6" d="M1991,2104.6c-9.5,0-18.51-1.54-26.77-4.56c-10.94-4.01-20.14-10.72-27.37-19.96
				c-7.04-9.01-11.7-19.22-13.84-30.36c-1.93-10.04-3.89-26.99-6-51.82l-3.41-40.29c-2.05-24.21-2.97-41.01-2.82-51.37
				c0.17-11.45,2.89-22.3,8.09-32.24c5.32-10.19,13.08-18.42,23.07-24.46c9.73-5.89,21.36-9.44,34.57-10.56
				c2.7-0.23,5.38-0.34,7.99-0.34c9.5,0,18.51,1.54,26.77,4.56c10.94,4.01,20.14,10.73,27.37,19.96
				c7.04,9.01,11.7,19.22,13.84,30.36c1.93,10.04,3.89,26.99,6,51.82l3.41,40.29c2.05,24.19,2.97,40.99,2.82,51.37
				c-0.17,11.46-2.89,22.3-8.09,32.24c-5.33,10.19-13.09,18.42-23.07,24.46c-9.73,5.89-21.36,9.44-34.57,10.56
				C1996.29,2104.48,1993.6,2104.6,1991,2104.6z"/>
			<path d="M1984.51,1848.63c8.36,0,16.14,1.32,23.33,3.95c9.2,3.37,16.85,8.95,22.93,16.73c6.09,7.78,10.05,16.48,11.9,26.09
				c1.85,9.61,3.8,26.54,5.85,50.77l3.41,40.29c2,23.66,2.93,40.45,2.78,50.37c-0.15,9.92-2.47,19.18-6.95,27.76
				c-4.49,8.58-10.95,15.43-19.39,20.54c-8.44,5.11-18.52,8.16-30.24,9.15c-2.43,0.21-4.81,0.31-7.15,0.31
				c-8.36,0-16.14-1.32-23.33-3.95c-9.2-3.37-16.85-8.95-22.93-16.73c-6.09-7.78-10.05-16.48-11.9-26.09
				c-1.85-9.61-3.8-26.53-5.85-50.77l-3.41-40.29c-2-23.66-2.93-40.45-2.78-50.37c0.15-9.92,2.47-19.18,6.95-27.76
				c4.48-8.58,10.95-15.43,19.39-20.54c8.44-5.11,18.52-8.16,30.24-9.15C1979.79,1848.73,1982.17,1848.63,1984.51,1848.63
				 M1993.71,2054.49c0.3,0,0.61-0.01,0.93-0.04c3.68-0.31,5.87-2.35,6.59-6.12c0.71-3.77,0.48-12.59-0.69-26.45l-9.17-108.2
				c-0.93-10.96-2.06-17.92-3.38-20.88c-1.21-2.71-3.26-4.06-6.15-4.06c-0.28,0-0.56,0.01-0.85,0.04c-2.82,0.24-4.88,1.66-6.16,4.26
				c-1.29,2.6-1.42,9.96-0.39,22.08l9.31,109.95c1.16,13.67,2.36,22.06,3.62,25.18C1988.51,2053.07,1990.63,2054.49,1993.71,2054.49
				 M1984.51,1828.63L1984.51,1828.63c-2.89,0-5.86,0.13-8.83,0.38c-14.76,1.25-27.85,5.28-38.91,11.97
				c-11.57,7-20.57,16.55-26.75,28.38c-5.93,11.33-9.03,23.69-9.22,36.72c-0.16,10.68,0.77,27.81,2.85,52.36l3.41,40.29
				c2.13,25.18,4.14,42.47,6.14,52.86c2.44,12.71,7.76,24.36,15.79,34.63c8.39,10.73,19.09,18.53,31.81,23.19
				c9.37,3.43,19.53,5.17,30.21,5.17c2.89,0,5.86-0.13,8.83-0.38c14.76-1.25,27.85-5.28,38.91-11.97
				c11.57-7.01,20.57-16.55,26.75-28.38c5.93-11.34,9.03-23.69,9.23-36.72c0.16-10.71-0.77-27.84-2.85-52.36l-3.41-40.29
				c-2.13-25.17-4.14-42.46-6.14-52.86c-2.44-12.71-7.75-24.36-15.78-34.63c-8.39-10.73-19.09-18.53-31.8-23.19
				C2005.35,1830.37,1995.19,1828.63,1984.51,1828.63L1984.51,1828.63z"/>
		</g>
		<g>
			<path class="st6" d="M2049.59,1837.77l48.2-4.08c15.39-1.3,28.08-1.96,37.72-1.96c6.98,0,12.46,0.33,16.74,1.01
				c11.83,1.89,21.92,8.32,29.96,19.12c7.67,10.3,12.31,26.09,14.19,48.26c1.76,20.74,0.48,34.38-4.01,42.94
				c-1.58,3-3.66,5.68-6.25,8.03c1.79,1.34,3.37,2.79,4.75,4.37c5.09,5.86,8.38,11.41,10.06,16.96c1.02,3.36,2.47,10.58,4.69,36.78
				l6.11,72.06l-70.09,5.94l-70.43,5.97L2049.59,1837.77z"/>
			<path d="M2135.51,1841.72c6.39,0,11.44,0.3,15.17,0.89c9.21,1.47,17.05,6.54,23.51,15.22c6.46,8.68,10.55,23.06,12.25,43.13
				c1.55,18.32,0.59,30.81-2.9,37.45c-3.49,6.65-11.08,11.1-22.77,13.35c10.95,2.1,18.47,5.52,22.58,10.25
				c4.1,4.73,6.78,9.17,8.04,13.31c1.26,4.14,2.69,15.72,4.3,34.72l5.26,62.1l-50.16,4.25l-6.63-78.24
				c-1.07-12.6-2.61-20.33-4.61-23.19c-1.65-2.34-5.12-3.51-10.41-3.51c-1.17,0-2.42,0.06-3.76,0.17l8.99,106.17l-54.01,4.57
				l-19.94-235.46l38.23-3.24C2113.81,1842.36,2126.11,1841.72,2135.51,1841.72 M2122.26,1934.95c6.07-0.51,10.25-1.82,12.52-3.92
				s2.98-8.33,2.1-18.71l-1.1-12.94c-0.63-7.47-2.22-12.26-4.77-14.39c-2.04-1.7-5.27-2.56-9.68-2.56c-1.1,0-2.27,0.05-3.51,0.16
				L2122.26,1934.95 M2135.52,1821.72v20V1821.72c-10.07,0-22.69,0.65-38.57,2l-38.23,3.24l-19.93,1.69l1.69,19.93l19.94,235.46
				l1.69,19.93l19.93-1.69l54.01-4.57l19.93-1.69l46.66-3.95l19.93-1.69l-1.69-19.93l-5.26-62.1c-2.28-26.9-3.79-34.56-5.09-38.83
				c-1.95-6.43-5.49-12.7-10.82-19.13c0.55-0.87,1.06-1.76,1.54-2.68c5.49-10.47,7.07-25.4,5.12-48.43
				c-2.04-24.08-7.32-41.54-16.13-53.38c-9.52-12.79-22.11-20.75-36.41-23.03C2149.01,1822.09,2143.02,1821.72,2135.52,1821.72
				L2135.52,1821.72z"/>
		</g>
	</g>
</g>
</svg>
