<?xml version="1.0" encoding="utf-8"?>
<!-- Generator: Adobe Illustrator 27.0.0, SVG Export Plug-In . SVG Version: 6.00 Build 0)  -->
<svg version="1.1" id="Layer_1" xmlns="http://www.w3.org/2000/svg" xmlns:xlink="http://www.w3.org/1999/xlink" x="0px" y="0px"
	 viewBox="0 0 2500 2500" style="enable-background:new 0 0 2500 2500;" xml:space="preserve">
<style type="text/css">
	.st0{fill:#D94436;}
	.st1{fill:#40342D;}
	.st2{fill:#BF3459;}
	.st3{fill:#D6BDA5;}
	.st4{fill:#FFFFFF;}
	.st5{fill:#68253A;}
	.st6{fill:#DD5F86;}
</style>
<g id="BG">
	<rect class="st0" width="2500" height="2500"/>
</g>
<g>
	<path class="st1" d="M1967.63,2022.55c7.03,12.83,11.52,33.35-6.69,58c-10.14,13.71-24.65,24.88-34.69,32.1
		c-24.24,17.45-60.01,37.42-106.33,59.32c-90.55,42.86-215.29,90.52-351.24,134.17c-135.98,43.67-267.77,78.39-371.13,97.8
		c-52.87,9.92-96.5,15.47-129.71,16.5c-4.14,0.13-7.96,0.18-11.69,0.18c-65.16,0-90.95-22.18-101.14-40.79l-83.64-153.11
		c-7.24-13.29-11.64-34.57,8.66-60.42c10.09-12.85,22.83-22.36,28.96-26.91c17.33-12.92,41.22-27.3,71.16-42.84
		c2.68-23.94,5.48-49.26,8.3-74.85c10.09-90.93,20.44-184.55,26.52-231.17c-47.41-48.78-132.77-164.53-169.45-215.13
		c-13.75-18.96-49.37-68.4-83.09-117.89c-68.38-100.46-70.8-116.04-72.11-124.42c-2.94-19.05,4.06-38.96,53.58-106.6
		c13.25-18.09,28.96-38.74,46.79-61.45c-13.89-71.02-105.75-319.89-151.09-442.7c-36.13-97.86-40.84-111.24-42.08-119.32
		c-0.67-3.9-6.31-27.33-11.76-50.01c-20.68-86.07-59.2-246.23-66.52-320.35c-6.19-62.49,33.12-116.44,102.6-140.79
		c23.41-8.19,49.09-12.52,74.26-12.52c41.03,0,77.9,11.02,103.82,31.05c27.59,21.3,72.14,83.3,210.48,390.03
		c4.06,9.02,8.25,18.28,9.06,19.95c1.41,2.84,4.54,9.13,15.61,43.54c21.26-10.41,44.74-17.23,69.91-20.18
		c9.73-1.14,19.63-1.7,29.39-1.7c59.54,0,106.71,21.12,135.79,38.81c14.85,9.04,28.67,19.47,40.65,30.58
		c20.71-5.94,44.16-9.37,68.84-9.97c2.61-0.06,5.26-0.07,7.89-0.07c45.81,0,92.8,9.81,132.27,27.66c6.34,2.86,12.48,5.94,18.46,9.2
		c0.93-3.48,1.84-6.91,2.73-10.27c19.44-73.05,25.01-92.34,33.12-104.71c6.22-14.63,26.28-90.58,38.38-136.37
		c25.66-97.14,42.06-157.75,53.44-181.17c17.77-36.44,67.59-59.98,126.96-59.98c5.45,0,11,0.2,16.52,0.6
		c35,2.49,66.66,12.63,91.48,29.35c25.44,17.09,41.99,39.82,47.84,65.68c15.97,70.39,7.22,343.98-1.05,369.44l-0.31,0.92
		c-44.42,136.85-80.58,308.09-61.14,382.11c3.99,15.22,10.14,34.72,17.24,57.34c47.87,152.01,136.34,433.13-24.53,652.84
		c2.92,32.7,8.22,74.59,15.8,124.93c23.74,1.08,43.25,5.28,58.39,12.54L1967.63,2022.55z M1889.03,2046.11l-64.65-118.37
		c-13.87,11.53-34.02,24.33-60.85,38.81c-86.03,46.34-233.6,104.91-394.78,156.68c-169.12,54.28-331.82,94.46-435.26,107.46
		c-23.58,2.95-43.49,4.45-60.06,4.45c-2.06,0-4.06-0.04-6.03-0.07l64.65,118.35c5.09,1.78,36.7,9.37,162.23-15.55
		c96.57-19.16,217.96-51.62,341.8-91.38c123.85-39.78,239.17-83.32,324.75-122.64C1872.03,2072.73,1887.14,2050.14,1889.03,2046.11z
		 M1765.75,595.48c3.85-18.42,14.35-279.56-0.1-343.05c-6.34-27.86-37.23-39.84-64.01-41.74c-26.49-1.87-50.86,5.68-56.67,17.6
		c-9.9,20.35-31.08,100.59-49.78,171.37c-1.39,5.3-2.77,10.43-4.06,15.4c42.39-4.73,104.8,5.81,139.83,41.23
		c-23.86-10.61-97.72-11.53-149.44-5.11c-18.39,68.47-25.99,92.91-31.99,101.1c-4.28,7.55-15.73,50.6-25.82,88.62
		c-26.13,98.2-46.86,172.27-66.66,201.61c15.37,29.4,21.28,62.33,7.48,90.23c-3.71,7.53-9.56,15.89-17.19,24.75
		c6.84,14.34,20.08,45.65,26.61,83.8c43.18,10.3,126.15,67.04,152.21,144.24c-12.07-22.8-93.13-80.39-148.53-95.71
		c-0.45,17.69-3.01,35.86-8.73,53.8c-6.34,19.78-18.75,36.21-36.01,48.52c40.36,25.65,92.96,71.71,123.5,112.52
		c77.09,103.06,55.3,169.72,55.3,169.72c-0.17-30.41-34.77-88.51-90.28-151.64c-51.07-58.09-100.02-98.48-126.8-112.34
		c-9.35,2.8-19.37,4.84-30.01,6.07c210.6,237.16,11,415.6,11,415.6c82.8-106.42,0.02-356.17-61.07-415.77
		c-19.65-2.36-38.83-7.35-53.42-14.89c-7.46,8.14-15.52,14.34-22.76,18.92c-23.67,15.01-51.91,21.7-74.72,21.7
		c-0.62,0-1.24-0.04-1.87-0.06c-22,177.45-181.26,169.24-181.26,169.24c61.69-25.28,96.55-71.42,114.94-105.68
		c11.69-21.78,18.79-42.42,22.67-59.36c-76.8,26.27-145.95,9.51-145.95,9.51c105.59-15.89,196.11-98.97,218.66-148.91
		c-84.71,19.56-149.53-7.08-149.53-7.08c58.22,1.17,183.77-33.11,256.89-73.86c71.3-39.74,115.75-82.07,126.87-104.57
		c14.9-30.08-5.76-74.65-33.83-103.12c-19.42-19.67-36.56-26.12-43.33-25.7c-4.54,0.31-26.71,4.2-120.48,41.74
		c-4.5,1.8-9.04,3.63-13.6,5.46c2.49,26.01,52.84,63.85,183.89,46.73c-148.08,71.66-223.58,5.61-229.66-27.92
		c-40.62,16.88-80.74,34.06-112.9,47.83c-36.49,15.6-55.23,23.61-63.58,26.71c-15.28,11.82-88.71,93.73-168.09,190.19
		c-112.52,136.77-146.52,191.39-149.2,202.92c4.9,15.82,60.16,101.12,146.43,219.91c53.1,73.14,95.33,127.85,125.29,164.24
		c96.31,18.33,388.32,14.3,538.43-19.51c-104.08,80.02-364.7,93.33-482.34,83.72l-0.43,2.69c-4.97,31.42-17.29,142.55-29.19,250.01
		c-3.78,34.15-7.51,67.86-10.95,98.42c-3.25,28.8-5.83,51.44-7.94,69.37c85.48-13.27,203.81-42.05,330.7-80.35
		c17.24-54.83,14.73-302.88,11.17-331.11c0,0,66.69,161.76,34.45,317.03c7.48-2.36,14.99-4.73,22.5-7.15
		c152.14-48.85,291.39-103.59,376.35-147.77c-3.78-21.92-7.36-43.34-10.66-63.81c-13.05-80.7-21.3-144.14-24.53-188.6l-0.36-5
		l3.37-4.27c156.75-198.77,70.99-471.2,24.91-617.55c-7.34-23.28-13.65-43.39-17.96-59.84c-22.05-84,12.41-237.23,38.9-333.22
		c-46.27,5.06-125.5-2.9-167.9-44.6c40.81,10.89,130.74,4.56,181.79-3.43c3.87-12.76,7.05-22.79,9.18-29.24L1765.75,595.48z
		 M1447.37,758.86c0.93-2.93,1.86-5.9,2.77-8.91c-35.82-63.83-109.68-85.26-167.78-83.87c-37.42,0.92-63.03,11.37-70.1,21.52
		c1.77,24.89,0.45,80.7-1.84,116.92c68.67-27.48,113.72-42.95,133.87-44.29c34.88-2.33,65.44,23.06,80.6,38.41
		c2.06,2.09,4.11,4.27,6.12,6.51C1435.34,794.59,1440.77,779.76,1447.37,758.86z M1427.9,1135.93
		c17.45-54.7,0.96-114.26-11.88-147.68c-35.34,30.36-85.26,62.62-140.4,87.68c15.23,41.5,13.32,72.72,4.16,95.84
		c7.79,5.83,31.75,14.23,62.84,13.77C1368.68,1185.1,1414.44,1178.13,1427.9,1135.93z M1212.85,1194.52
		c29.72-19.69,38.71-53.64,26.35-97.01c-10.5,25.76-26.3,62.02-55.88,96c-4.9,5.65-10.04,11.02-15.37,16.11
		C1179.62,1208.87,1196.98,1205.06,1212.85,1194.52z M1170.39,693.96c-0.14-2.95-0.31-5.57-0.55-7.81
		c-1-9.99-20.13-35.2-52.12-54.67c-22.31-13.58-57.77-28.74-99.97-23.79c-82.39,9.64-108.86,95.05-105.75,115
		c3.28,21.12,35.32,127.06,56.24,183.15c1.63-0.84,2.92-1.26,4.18-1.67c4.88-1.59,32.71-13.51,62.19-26.12
		c49.66-21.27,93.73-39.91,132.18-55.78c1.87-18.09,3.68-58.08,4.06-91.42c-41.1-14.19-160.37-27.31-220.09-14.78
		C1007.4,684.76,1125.65,683.84,1170.39,693.96z M902.29,971.88c11.14-12.48,20.3-22.53,27.97-30.74
		c-46.79-14.68-182.1-64.84-197.74-158.08c16.43,34.17,126.51,78.5,177.41,80.81c-18.41-55.62-37.06-119.71-39.81-137.36
		c-1.91-12.28,1.7-32.8,11.43-54.65c-6.34-21.32-14.42-48.18-21.85-71.93c-40.62,25.19-129.74,39.63-223.3,10.94
		c56.31,4.8,168.28-29.92,210.36-51.11c-2.75-8.08-4.9-13.95-6.12-16.41c-1.1-2.22-3.85-8.29-9.92-21.8
		c-26.16-58-48.87-106.93-68.6-148.21c-36.75,13.31-109.8,24.27-173.23,10.85c33.9-2.31,117.02-25.55,154.91-48.76
		c-65.94-134.89-92.89-171.07-103.75-179.49c-17.77-13.71-52.72-15.91-83.16-5.26c-17.77,6.23-58.6,26.21-53.56,77.09
		c7.01,70.69,44.98,228.65,65.37,313.51c7.82,32.54,11.69,48.65,12.53,53.86c1.55,6.65,19.18,54.37,39.55,109.59
		c62.98,170.67,124.81,340.61,147.19,425.48c7.46-9.2,14.56-17.87,21.09-25.77C828.05,1057.1,869.31,1008.78,902.29,971.88z"/>
	<path class="st2" d="M905.3,2148.42c-2.03,17.64-3.71,32.25-5.16,44.34c-36.7,3.72-52.96,1.87-59.37,0.48
		C844.66,2187.76,858.32,2173.77,905.3,2148.42z"/>
	<path class="st2" d="M1812.71,1879.86c-2.94,4.18-11.62,13.33-36.53,28.74c-1.7-10.08-3.37-20.04-4.97-29.77
		C1795.59,1877.24,1807.48,1878.69,1812.71,1879.86z"/>
	<path class="st2" d="M1824.38,1927.74l64.65,118.37c-1.89,4.03-17.02,26.64-128.23,77.75c-85.57,39.32-200.89,82.88-324.75,122.64
		c-123.83,39.76-245.22,72.23-341.8,91.38c-125.53,24.91-157.11,17.32-162.23,15.55l-64.65-118.35c1.96,0.06,3.97,0.07,6.03,0.07
		c16.57,0,36.49-1.5,60.06-4.45c103.44-13,266.14-53.18,435.26-107.46c161.18-51.77,308.75-110.34,394.78-156.68
		C1790.36,1952.09,1810.51,1939.27,1824.38,1927.74z"/>
	<path class="st3" d="M1239.18,1097.52c12.39,43.35,3.37,77.31-26.35,97.01c-15.88,10.52-33.24,14.34-44.9,15.12
		c5.33-5.1,10.45-10.47,15.37-16.11C1212.9,1159.54,1228.68,1123.28,1239.18,1097.52z"/>
	<path class="st4" d="M1416.02,988.23c12.84,33.42,29.36,92.98,11.88,147.68c-13.49,42.22-59.23,49.18-85.29,49.59
		c-31.08,0.48-55.04-7.92-62.84-13.77c9.18-23.12,11.07-54.34-4.16-95.84C1330.76,1050.85,1380.68,1018.59,1416.02,988.23z"/>
	<path class="st4" d="M1450.14,749.95c-0.93,3.01-1.87,5.98-2.77,8.91c-6.6,20.9-12.03,35.75-16.35,46.31
		c-2.01-2.24-4.04-4.42-6.12-6.51c-15.14-15.34-45.72-40.73-80.6-38.41c-20.16,1.32-65.2,16.79-133.87,44.29
		c2.3-36.22,3.61-92.03,1.84-116.92c7.08-10.16,32.69-20.61,70.1-21.52C1340.46,664.67,1414.32,686.12,1450.14,749.95z"/>
	<path class="st4" d="M1169.86,686.15c0.24,2.24,0.41,4.86,0.55,7.81c-44.74-10.1-163-9.2-219.64,22.11
		c59.73-12.52,178.99,0.59,220.09,14.78c-0.38,33.35-2.2,73.33-4.06,91.42c-38.45,15.86-82.51,34.52-132.18,55.78
		c-29.48,12.61-57.31,24.53-62.19,26.12c-1.27,0.4-2.56,0.83-4.18,1.67c-20.92-56.1-52.96-162.04-56.24-183.15
		c-3.13-19.95,23.36-105.35,105.75-115c42.23-4.95,77.66,10.21,99.97,23.79C1149.71,650.96,1168.84,676.16,1169.86,686.15z"/>
	<path class="st4" d="M930.26,941.13c-7.68,8.19-16.86,18.26-27.97,30.74c-32.97,36.9-74.24,85.23-113.21,132.58
		c-6.53,7.9-13.63,16.57-21.09,25.77c-22.38-84.88-84.21-254.83-147.19-425.48c-20.37-55.22-37.97-102.92-39.55-109.59
		c-0.84-5.21-4.71-21.3-12.53-53.86c-20.4-84.86-58.36-242.83-65.37-313.51c-5.05-50.87,35.79-70.85,53.56-77.09
		c30.44-10.65,65.42-8.45,83.16,5.26c10.86,8.41,37.8,44.6,103.75,179.49c-37.92,23.21-121.01,46.45-154.91,48.76
		c63.43,13.42,136.48,2.46,173.23-10.85c19.73,41.28,42.42,90.21,68.6,148.21c6.1,13.51,8.85,19.58,9.92,21.8
		c1.2,2.46,3.37,8.32,6.12,16.41c-42.08,21.17-154.05,55.91-210.36,51.11c93.56,28.69,182.65,14.24,223.3-10.94
		c7.41,23.76,15.52,50.6,21.85,71.93c-9.73,21.85-13.34,42.37-11.43,54.65c2.75,17.65,21.4,81.74,39.81,137.36
		c-50.9-2.31-160.99-46.62-177.41-80.81C748.16,876.29,883.47,926.45,930.26,941.13z"/>
	<path class="st4" d="M1765.66,252.44c14.42,63.47,3.95,324.6,0.1,343.05l-0.19,0.62c-2.1,6.45-5.28,16.48-9.18,29.24
		c-51.05,7.99-141,14.3-181.79,3.43c42.39,41.71,121.63,49.66,167.9,44.6c-26.52,95.99-60.97,249.22-38.9,333.22
		c4.3,16.44,10.62,36.55,17.96,59.84c46.07,146.34,131.84,418.76-24.91,617.55l-3.37,4.27l0.36,5
		c3.23,44.44,11.48,107.9,24.53,188.6c3.3,20.48,6.89,41.89,10.66,63.81c-84.95,44.16-224.21,98.92-376.35,147.77
		c-7.51,2.4-15.02,4.78-22.5,7.15c32.23-155.27-34.45-317.03-34.45-317.03c3.56,28.23,6.07,276.26-11.17,331.11
		c-126.89,38.3-245.22,67.08-330.7,80.35c2.1-17.93,4.71-40.59,7.94-69.37c3.44-30.56,7.17-64.29,10.95-98.42
		c11.88-107.46,24.2-218.59,29.19-250.01l0.43-2.69c117.64,9.61,378.26-3.72,482.34-83.72c-150.11,33.8-442.12,37.86-538.43,19.51
		c-29.96-36.37-72.21-91.09-125.29-164.24c-86.27-118.79-141.52-204.07-146.43-219.91c2.68-11.53,36.68-66.14,149.2-202.92
		c79.38-96.46,152.79-178.37,168.09-190.19c8.34-3.08,27.09-11.11,63.58-26.71c32.16-13.77,72.28-30.94,112.9-47.83
		c6.07,33.53,81.58,99.58,229.66,27.92c-131.05,17.12-181.41-20.72-183.89-46.73c4.57-1.85,9.11-3.67,13.6-5.46
		c93.78-37.54,115.94-41.43,120.48-41.74c6.77-0.42,23.91,6.03,43.33,25.7c28.09,28.47,48.73,73.03,33.83,103.12
		c-11.12,22.51-55.57,64.84-126.87,104.57c-73.12,40.75-198.67,75.05-256.89,73.86c0,0,64.82,26.64,149.53,7.08
		c-22.57,49.94-113.1,133.02-218.66,148.91c0,0,69.15,16.76,145.95-9.51c-3.87,16.92-10.97,37.58-22.67,59.36
		c-18.39,34.26-53.25,80.4-114.94,105.68c0,0,159.27,8.21,181.26-169.24c0.62,0.02,1.22,0.06,1.87,0.06
		c22.79,0,51.05-6.67,74.72-21.71c7.22-4.58,15.28-10.78,22.76-18.92c14.59,7.53,33.76,12.52,53.42,14.89
		c61.09,59.62,143.87,309.37,61.07,415.77c0,0,199.58-178.46-11-415.6c10.62-1.23,20.66-3.26,30.01-6.07
		c26.78,13.86,75.72,54.24,126.8,112.34c55.52,63.14,90.12,121.23,90.28,151.64c0,0,21.78-66.64-55.3-169.72
		c-30.53-40.81-83.14-86.88-123.5-112.52c17.26-12.32,29.7-28.74,36.01-48.52c5.71-17.95,8.3-36.11,8.73-53.8
		c55.42,15.33,136.45,72.91,148.53,95.71c-26.06-77.2-109.03-133.95-152.21-144.24c-6.53-38.15-19.77-69.46-26.61-83.8
		c7.6-8.85,13.49-17.21,17.19-24.75c13.8-27.9,7.89-60.83-7.48-90.23c19.8-29.37,40.53-103.43,66.66-201.61
		c10.09-38,21.54-81.06,25.82-88.62c5.98-8.18,13.6-32.63,31.99-101.1c51.72-6.42,125.58-5.5,149.44,5.11
		c-35.03-35.42-97.43-45.94-139.83-41.23c1.32-4.97,2.68-10.08,4.06-15.4c18.7-70.78,39.91-151.02,49.78-171.37
		c5.81-11.9,30.17-19.47,56.67-17.6C1728.45,212.6,1759.34,224.57,1765.66,252.44z"/>
	<path class="st1" d="M1413.84,1777.16c22.07,57.98,29.12,167.98,30.87,221.67C1506.42,1908.58,1449.57,1802.06,1413.84,1777.16z"/>
	<path class="st3" d="M771.86,854.09c-19.89-20.11-34.74-43.72-39.33-71.04c7.84,16.32,37.01,34.94,70.92,50.19
		c-43.49-64.11-46.79-169.48-46.48-206.97c-36.53,1.72-78.07-2.38-120.55-15.42c34.93,2.97,91.26-9.26,139.09-24.03
		C681.17,562.6,667.97,429.34,666.13,390c-25.34,0.97-52.03-0.5-77.21-5.83c24.84-1.69,76.06-14.63,116.61-30.54l0,0
		c-95.45-21.89-130.86-172.01-93.44-208.49c-16.86-2.6-36.82-0.9-55.16,5.52c-17.77,6.23-58.6,26.21-53.56,77.09
		c7.01,70.69,44.97,228.65,65.37,313.51c7.82,32.54,11.69,48.65,12.53,53.86c1.55,6.65,19.18,54.37,39.55,109.59
		c62.98,170.67,124.81,340.61,147.19,425.48c7.46-9.2,14.56-17.87,21.09-25.77c18.08-21.96,36.63-44.11,54.63-65.26
		C808.61,1009.66,781.68,899.43,771.86,854.09z"/>
	<path class="st3" d="M1120.27,719.61c-53.27-8.32-126.7-12.52-169.5-3.54c21.4-11.82,51.57-19.3,83.28-23.5
		c-2.94-18.04,24.05-64.24,56.62-74.63c-20.13-8.01-45.05-13.51-72.9-10.25c-82.39,9.64-108.86,95.05-105.75,115
		c3.28,21.12,35.32,127.06,56.24,183.15c1.63-0.84,2.92-1.26,4.18-1.67c4.88-1.59,32.71-13.51,62.19-26.12
		c4.38-1.87,8.7-3.72,12.98-5.55C1017.25,793.87,1087.16,739.94,1120.27,719.61z"/>
	<path class="st3" d="M1308.93,768.28c3.8-22.29,14.08-73.35,31.78-96c-19.89-4.78-39.91-6.64-58.36-6.2
		c-37.42,0.92-63.03,11.37-70.1,21.52c1.77,24.89,0.45,80.7-1.84,116.92C1252.02,787.86,1284.94,775.63,1308.93,768.28z"/>
	<g>
		<path class="st3" d="M1591.14,415.06c13.6-1.52,29.29-1.45,45.45,0.49c-3.16-52.34,52.24-167.9,91.38-199.64
			c-8.56-2.91-17.65-4.6-26.33-5.22c-26.49-1.87-50.86,5.68-56.67,17.6c-9.9,20.35-31.08,100.59-49.78,171.37
			C1593.82,404.96,1592.43,410.09,1591.14,415.06z"/>
		<path class="st3" d="M1470.65,881.08c22.95-57.01,108.91-172.45,182.94-213.26c-29.67-6.75-58.63-18.99-79.02-39.07
			c11.93,3.19,28.09,4.89,46.24,5.52c-6.65-32.58-24.84-143.37,24.29-187.1c-21.78,0.22-44.26,1.59-63.62,4
			c-18.39,68.47-25.99,92.91-31.99,101.1c-4.28,7.55-15.73,50.6-25.82,88.62c-26.13,98.2-46.86,172.27-66.66,201.61
			C1463.53,854.96,1468.31,868.03,1470.65,881.08z"/>
	</g>
	<path class="st3" d="M1606.03,1145.88c0.48-32.63-15.71-109.48-89.18-124.29c10.35-6.8,80.62-14.74,152.36,30.61
		c-17.69-60.29-137.56-115.67-202.21-127.9c-0.98,2.86-2.1,5.68-3.47,8.43c-3.71,7.53-9.56,15.89-17.19,24.75
		c6.84,14.34,20.08,45.65,26.61,83.8C1508.34,1049.71,1570.43,1089.37,1606.03,1145.88z"/>
	<path class="st3" d="M1432.88,1192.14c40.36,25.65,92.94,71.71,123.5,112.52c21.73,29.04,35.6,55.2,44.33,77.78
		c7.29-106.58-80.29-211.46-129.62-246.23c-0.67,2.47-1.39,4.93-2.18,7.41C1462.55,1163.39,1450.14,1179.82,1432.88,1192.14z"/>
	<path class="st3" d="M1244.58,1269.73c42.42,32.08,55.93,158.24,31.06,199.58c73.48-71.42,45.48-220.28,34.14-253.66
		c-17.96-2.57-35.24-7.31-48.66-14.24c-7.46,8.14-15.52,14.34-22.76,18.92c-23.67,15.01-51.91,21.7-74.72,21.7
		c-0.62,0-1.24-0.04-1.86-0.06c-9.44,76.3-44.28,118.26-80.94,141.32C1158.96,1371.64,1223.35,1313.97,1244.58,1269.73z"/>
	<path class="st3" d="M1322,1184.51c29.15-29.88,32.4-112.28,23.93-145.94c-21.83,13.35-45.55,26.07-70.32,37.34
		c15.23,41.5,13.32,72.72,4.16,95.84C1285.76,1176.2,1301.18,1182.16,1322,1184.51z"/>
	<path class="st3" d="M1213.81,839.65c0.81,8.4,6.62,18.02,18.51,26.64c47.32,8.8,131.12,11.48,143.84,2.47
		c17.14-12.14-19.8-69.79-30.89-75.97c-8.58,1.47-35.79,8.56-117.85,41.39C1222.92,835.98,1218.38,837.81,1213.81,839.65z"/>
	<path class="st3" d="M1624.3,1601.78c-41.94,33.38-243.67,72.96-299.79,72.96c14.75-8.65,48.16-25.98,56.09-119.96
		c-22.69,38.33-174.38,122.44-225.71,107.59c20.97-9.9,95.5-54.41,106.45-103.65c-29.03,29.92-162.92,96.22-220.09,73.97
		c-57.17-22.26-168.66-202.82-155.75-202.82c12.91,0,53.22-8.65,70.97-40.81c-14.51,4.95-77.42,18.55-96.79-8.65
		c11.29,1.23,70.51,0,108.07-44.53c-14.51,7.42-138.73,19.78-135.5-5.92c3.23-25.7,141.45-274.58,164.55-325.67
		c25.06,29.33,127.97,35.14,173.49,6.07c-13.84,1.52-78.5,5.55-114.12-64.24c69.39,16.87,172.03-9.9,213.11-27.81
		c-63.84-2.33-97.34-38-101.28-59.85c-40.62,16.88-80.74,34.06-112.9,47.83c-36.49,15.6-55.23,23.61-63.58,26.71
		c-15.28,11.82-88.71,93.73-168.09,190.19c-112.52,136.77-146.52,191.39-149.2,202.92c4.9,15.82,60.16,101.12,146.43,219.91
		c53.1,73.14,95.33,127.85,125.29,164.24c96.31,18.33,388.32,14.3,538.43-19.51c-0.88,0.68-1.82,1.36-2.75,2.03
		C1551.73,1667.24,1609.5,1635.31,1624.3,1601.78z"/>
	<path class="st3" d="M1002.13,1774.45l-0.43,2.69c-4.97,31.42-17.29,142.55-29.19,250.01c-3.78,34.15-7.51,67.86-10.95,98.42
		c-3.25,28.8-5.83,51.44-7.94,69.37c67.35-10.45,155.08-30.54,251.32-57.32c28.72-43.28,9.3-308.03-4.97-366.13
		C1123.72,1778.46,1050.72,1778.41,1002.13,1774.45z"/>
	<path class="st3" d="M1352.44,2093.39c20.71-6.65,41.17-13.42,61.33-20.24c12.94-52.12-2.39-204.2-65.32-268.97
		c17.07,64.66,8.03,232.56-5.21,292.14C1346.3,2095.35,1349.38,2094.38,1352.44,2093.39z"/>
	<path class="st5" d="M1171.68,2240.56c11.41-14.57,18.27-43.01,20.85-65.19c-101.47,27.37-192.52,46.97-259.04,55.34
		c-17.31,2.18-32.64,3.56-46.15,4.14l66.16,121.05c12.12,0.2,30.39-0.64,57.53-4.07c203.95-37.29,658.82-216.83,721.11-287.48
		C1664.04,2104.57,1307.23,2216.62,1171.68,2240.56z"/>
	<path class="st6" d="M1889.03,2046.11l-64.65-118.37c-8.01,6.67-18.15,13.75-30.46,21.36l39.45,68.8c0,0-46.65,56.98-208.45,126.25
		c86.22-16.13,213.21-65.85,256.27-88.84C1886.64,2050.33,1888.46,2047.34,1889.03,2046.11z"/>
</g>
</svg>
